<svg xmlns="http://www.w3.org/2000/svg" width="32" height="32" fill="none"><g clip-path="url(#a)"><path fill="#0C2E4B" fill-rule="evenodd" d="M8.605 8.726h14.749l5.777 7.436-5.777 7.482H8.604l-5.776-7.482 5.777-7.436Z" clip-rule="evenodd"/><path fill="#06223B" fill-rule="evenodd" d="M17.865 15.192a3.232 3.232 0 0 1-.155-1.034 2.53 2.53 0 0 1 .9-1.927c.67-.579 1.56-.803 2.43-.803a7.874 7.874 0 0 1 1.992.266l.319.082.22 2.784h-.774l-.139-.212c-.369-.566-.836-.768-1.5-.768-.33 0-.914.011-.914.457 0 .462.823.722 1.162.863 1.54.64 2.615 1.35 2.615 3.182 0 1.933-1.615 2.875-3.372 2.897-.839.01-1.928-.107-2.657-.543l-.2-.119-.256-2.551.65-.323.23.3c.558.724 1.17 1.098 2.098 1.074.435-.011.936-.076.936-.613 0-.604-.804-.855-1.256-1.042-.672-.277-1.372-.6-1.857-1.15-.485-.55-1.22.27-1.35 1.07-.402 2.46-2.326 3.97-4.829 3.97-2.828 0-4.716-1.96-4.716-4.77 0-2.974 1.913-4.926 4.896-4.926 2.506 0 4.36 1.552 4.679 3.995.269-.022.64-.07.85-.16h-.002Zm-3.65-.12c-.267-.943-.897-1.55-2.001-1.55-1.51 0-2.072 1.314-2.072 2.641 0 1.433.5 2.725 2.132 2.725 1.159 0 1.941-1.138 1.941-2.332l-.004-1.483c-.271-.04.004-.001 0 0l.004-.001Z" clip-rule="evenodd"/><path fill="url(#b)" fill-rule="evenodd" d="m4.015 16.176-2.567.35-.262-.35 7.091-9.304h4.495l.692.7h5.072l.693-.7h4.494l7.092 9.303-.261.35-2.569-.35-5.103-6.69H9.117l-5.102 6.69Z" clip-rule="evenodd"/><path fill="url(#c)" fill-rule="evenodd" d="M18.534 24.786h-5.068l-.693.7H8.276l-7.09-9.31h2.83l5.104 6.69 13.758.004 5.106-6.695h2.83l-7.089 9.312h-4.498l-.693-.701Z" clip-rule="evenodd"/><path fill="#A16913" fill-rule="evenodd" d="M29.513 16.175h1.301l-7.09 9.312h-4.497l.148-.354 3.864-.308 6.274-8.65Z" clip-rule="evenodd"/><path fill="url(#d)" fill-rule="evenodd" d="m19.375 25.132-.692-.701h-5.365l-.693.701H8.451l-6.826-8.955h1.95l5.369 7.043h14.113l5.37-7.043h1.949l-6.827 8.955h-4.174Z" clip-rule="evenodd"/><path fill="url(#e)" fill-rule="evenodd" d="M9.117 22.87h13.761l5.106-6.695.442.002-5.37 7.043-14.187.191.248-.542Z" clip-rule="evenodd"/><path fill="url(#f)" fill-rule="evenodd" d="m22.878 22.87 5.106-6.695.443.002-5.37 7.043-.179-.35Z" clip-rule="evenodd"/><path fill="#F4DF5D" fill-rule="evenodd" d="m18.683 7.923 4.866-.7.167-.351h-4.487l-.693.7.147.351Z" clip-rule="evenodd"/><path fill="#F6E98D" fill-rule="evenodd" d="m18.683 7.923.693-.701-.147-.35-.693.7.147.351Z" clip-rule="evenodd"/><path fill="url(#g)" fill-rule="evenodd" d="m12.772 6.872-.147.35-1.284.842-3.026.367-6.168 7.75-.961-.006.265-.348 6.826-8.955h4.495Z" clip-rule="evenodd"/><path fill="url(#h)" fill-rule="evenodd" d="m19.375 7.222-.692.701h-5.365l-.693-.701H8.451l-6.826 8.955 1.94.011 5.379-7.054h14.113l5.37 7.043h1.949l-6.827-8.955h-4.174Z" clip-rule="evenodd"/><path fill="#FEF8C2" fill-rule="evenodd" d="m7.268 8.774.823 1.478.847-1.11c-.38-.472-.556-1.035-.487-1.92L7.268 8.773Zm-.203.267-1.208 1.582c.543.94.482 1.565.192 2.305l1.836-2.409-.82-1.478Z" clip-rule="evenodd"/><path fill="url(#i)" fill-rule="evenodd" d="m12.102 6.398 3.9 3.9 3.902-3.9-3.901-3.901-3.9 3.901Z" clip-rule="evenodd"/><path fill="url(#j)" fill-rule="evenodd" d="m12.598 6.398 3.405-3.405 3.405 3.405-3.405 3.405-3.405-3.405Z" clip-rule="evenodd"/><path fill="url(#k)" fill-rule="evenodd" d="m13.256 6.253 2.601-2.604a.205.205 0 0 1 .291 0l2.603 2.603a.207.207 0 0 1 0 .291l-2.603 2.603a.207.207 0 0 1-.291 0l-2.6-2.602a.207.207 0 0 1 0-.291Z" clip-rule="evenodd"/><path fill="#0C76A0" fill-rule="evenodd" d="m14.042 6.466 1.96-2.202 2.676 2.134-2.676 2.676-1.96-2.608Z" clip-rule="evenodd"/><path fill="url(#l)" fill-rule="evenodd" d="m16.982 8.093-.98.98-.12-1.391 1.024-.57c-.185.319-.56 1.146.076.981Z" clip-rule="evenodd"/><path fill="url(#m)" fill-rule="evenodd" d="m15.779 3.947.224-.224 2.676 2.675h-2.9V3.947Z" clip-rule="evenodd"/><path fill="url(#n)" fill-rule="evenodd" d="m13.327 6.398 2.675-2.452v5.127l-2.675-2.675Z" clip-rule="evenodd"/><path fill="#29A2D0" fill-rule="evenodd" d="M16.003 6.79v2.283l-.659-.658c.2-.325 0-.892-.38-1.343l1.039-.281Z" clip-rule="evenodd"/><path fill="url(#o)" fill-rule="evenodd" d="m13.327 6.398 2.675-2.675v2.675h-2.675Z" clip-rule="evenodd"/><path fill="url(#p)" fill-rule="evenodd" d="m14.386 6.398 1.617-1.617 1.617 1.617-1.617 1.617-1.617-1.617Z" clip-rule="evenodd"/><path fill="url(#q)" fill-rule="evenodd" d="m14.338 6.35 1.617-1.617a.067.067 0 0 1 .096 0l1.617 1.617a.068.068 0 0 1 0 .096L16.05 8.063a.068.068 0 0 1-.096 0l-1.617-1.616a.067.067 0 0 1-.015-.074.067.067 0 0 1 .015-.023Zm1.665-1.472-1.52 1.52 1.52 1.52 1.52-1.52-1.52-1.52Z" clip-rule="evenodd"/><path fill="url(#r)" fill-rule="evenodd" d="M15.935 3.723a.068.068 0 1 1 .136 0v1.083a.068.068 0 1 1-.136 0V3.723Z" clip-rule="evenodd"/><path fill="#A9F2FA" fill-rule="evenodd" d="M13.327 6.466a.068.068 0 0 1 0-.136h1.082a.068.068 0 0 1 0 .136h-1.082Z" clip-rule="evenodd"/><path fill="#4FE7F7" fill-rule="evenodd" d="M16.07 9.074a.068.068 0 0 1-.116.048.068.068 0 0 1-.02-.048V7.99a.068.068 0 1 1 .137 0v1.084Z" clip-rule="evenodd"/><path fill="#9BF0FA" fill-rule="evenodd" d="M18.679 6.33a.068.068 0 0 1 .048.116.068.068 0 0 1-.048.02h-1.084a.068.068 0 0 1-.048-.116.068.068 0 0 1 .048-.02h1.084Z" clip-rule="evenodd"/><path fill="url(#s)" fill-rule="evenodd" d="M19.65 6.15h2.806l-3.334 3.334-2.306.002-.81.81-.817-.81h-2.396L9.544 6.15h2.805L16 9.8l3.651-3.65Z" clip-rule="evenodd"/><path fill="url(#t)" fill-rule="evenodd" d="M19.796 6.502h1.814l-2.634 2.634H17.16l2.635-2.634Zm-7.591 0H10.39l2.622 2.634h1.814l-2.622-2.634Z" clip-rule="evenodd"/><path fill="#A16913" fill-rule="evenodd" d="m12.773 25.487-.148-.355.693-.702h5.365l-.149.355h-5.068l-.693.702Z" clip-rule="evenodd"/><path fill="url(#u)" fill-rule="evenodd" d="M12.082 20.622c-2.67 0-4.421-1.834-4.421-4.475 0-2.809 1.778-4.63 4.6-4.63 2.658 0 4.433 1.814 4.433 4.463 0 2.75-1.853 4.642-4.61 4.642h-.002Zm.119-1.574c1.635 0 2.38-1.475 2.38-2.949 0-1.603-.666-3.008-2.44-3.008-1.675 0-2.367 1.43-2.367 2.937 0 1.613.629 3.02 2.427 3.02Z" clip-rule="evenodd"/><path fill="#FFF0BD" fill-rule="evenodd" d="M7.815 14.787c.07-.293.17-.58.295-.854a1.252 1.252 0 0 1 .921.65c.373.972-.422 1.265-.408.905.014-.36-.2-1.135-.808-.7Z" clip-rule="evenodd"/><path fill="url(#v)" fill-rule="evenodd" d="M12.083 20.622c-1.372 0-2.505-.485-3.28-1.317.842.228.999-.199.847-.34 0 0 1.133-.093 1.411-.164.312.158.69.246 1.14.246 1.636 0 2.38-1.475 2.38-2.948 0-.104.823-1.824.817-1.927.487.206.546-.56.185-1.303.709.777 1.111 1.848 1.111 3.11 0 2.751-1.852 4.643-4.609 4.643h-.002Z" clip-rule="evenodd"/><path fill="#FEF8C2" fill-rule="evenodd" d="M8.285 13.594A3.918 3.918 0 0 1 9.338 12.4c-.008.023-.244.695.943.322 0 0-1.101 1.333-1.497 1.923.117-.267-.033-1.16-.591-.864l.092-.187Z" clip-rule="evenodd"/><path fill="url(#w)" fill-rule="evenodd" d="M12.104 19.771c-2.04 0-3.378-1.491-3.378-3.638 0-2.284 1.359-3.765 3.516-3.765 2.03 0 3.387 1.475 3.387 3.629 0 2.236-1.415 3.774-3.525 3.774Zm.097-.723c1.635 0 2.38-1.476 2.38-2.949 0-1.603-.666-3.008-2.44-3.008-1.675 0-2.367 1.43-2.367 2.936 0 1.613.63 3.02 2.428 3.02H12.2Z" clip-rule="evenodd"/><path fill="#F8E98B" fill-rule="evenodd" d="M12.104 19.771c-.813 0-1.462-.22-1.988-.693 3.37 1.229 6.09-1.677 4.987-5.003.348.575.525 1.112.525 1.92 0 2.237-1.415 3.775-3.524 3.775v.001Z" clip-rule="evenodd"/><path fill="url(#x)" fill-rule="evenodd" d="M8.957 17.58a4.4 4.4 0 0 1-.231-1.447c0-.731.14-1.38.4-1.924a3.225 3.225 0 0 1 2.232-1.75 4.183 4.183 0 0 1 1.253-.074c.918.09 1.734.485 2.305 1.255.05.093.086.193.11.296-.642-.758-2.022-1.01-2.883-.845-1.676 0-2.368 1.43-2.368 2.936-.264.918-.223 2.107.135 2.881a3.905 3.905 0 0 1-.952-1.328Z" clip-rule="evenodd"/><path fill="#FFF0BD" fill-rule="evenodd" d="M15.162 17.834c-.22.535-.59 1.037-1.098 1.297.07-.131.24-.646-.521-.52.427-.329.717-.82.878-1.371.035.404.313.894.74.594Z" clip-rule="evenodd"/><path fill="#FEF8C2" d="M12.104 19.916c-1.056 0-1.932-.384-2.547-1.047-.615-.664-.973-1.617-.973-2.736 0-1.184.355-2.162.993-2.845.638-.682 1.548-1.065 2.666-1.065 1.054 0 1.935.384 2.554 1.047.619.663.974 1.607.974 2.726 0 1.16-.37 2.14-1.014 2.831-.645.692-1.56 1.089-2.653 1.089Zm-2.387-1.197c.577.618 1.395.977 2.387.977 1.03 0 1.89-.374 2.493-1.018.601-.645.954-1.579.954-2.682 0-1.062-.333-1.953-.915-2.579-.582-.625-1.403-.976-2.393-.976-1.054 0-1.912.36-2.506.995-.593.636-.932 1.568-.932 2.696 0 1.06.329 1.958.913 2.585l-.001.002Z"/><path fill="#8E5A0C" fill-rule="evenodd" d="M15.427 14.963c0-.773-1.683-2.456-2.275-2.365-.591.09-3.867 1.455-3.867 1.455-1.274-.455-1.764-1.279-1.865-2.002-.294.383.246 1.639.864 2.002.618.364 1.228.41 1.683.41.455 0 2.503-1.046 3.185-1.046.683 0 2.008.82 2.275 1.546Z" clip-rule="evenodd"/><path fill="#FEF8C2" d="M14.972 13.872c-.091-.228-.774-1.41-1.911-1.41-1.138 0-2.821 1.045-3.685 1.045-.865 0-1.831-.566-1.957-1.455-.074 1.043.937 1.91 1.866 1.91.928 0 2.646-1.228 3.776-1.228 1.009 0 1.774.91 1.911 1.138Z"/><path fill="url(#y)" d="M14.972 13.872c-.091-.228-.774-1.41-1.911-1.41-1.138 0-2.821 1.045-3.685 1.045-.865 0-1.831-.566-1.957-1.455-.074 1.043.937 1.91 1.866 1.91.928 0 2.646-1.228 3.776-1.228 1.009 0 1.774.91 1.911 1.138Z"/><path fill="#FEF8C2" d="M15.427 14.963c-.027-1.284-1.229-2.366-2.366-2.366s-2.866 1.32-3.73 1.32c-.865 0-1.786-.976-1.912-1.865-.074 1.043.937 2.092 1.866 2.092.928 0 2.646-1.228 3.776-1.228 1.009 0 2.1.856 2.366 2.047Z"/><path fill="url(#z)" fill-rule="evenodd" d="M20.572 20.549c-.774.009-1.825-.096-2.502-.501l-.07-.043-.224-2.2.249-.123.083.11c.62.804 1.317 1.213 2.338 1.188.622-.015 1.225-.19 1.225-.908 0-.779-.84-1.068-1.44-1.317-1.316-.544-2.3-1.11-2.3-2.732a2.236 2.236 0 0 1 .796-1.7c.616-.532 1.44-.732 2.238-.732a7.464 7.464 0 0 1 1.918.257l.114.029.18 2.252h-.294l-.05-.075c-.428-.659-.99-.903-1.748-.903-.523 0-1.208.09-1.208.753 0 .661.847.928 1.345 1.135 1.404.584 2.432 1.196 2.432 2.91-.001 1.75-1.47 2.582-3.082 2.6Z" clip-rule="evenodd"/><path fill="url(#A)" fill-rule="evenodd" d="m23.091 13.062.085 1.067h-.294l-.05-.075c-.427-.659-.99-.903-1.748-.903-.522 0-1.207.09-1.207.752 0 .099.02.196.06.285-.6.539.746 1.591.746 1.591-1.85.33-2.288-2.197-2.278-2.816.01-.619 1.814-1.078 2.978-1.025.638.03 1.27.608 1.71 1.125l-.002-.001Z" clip-rule="evenodd"/><path fill="url(#B)" fill-rule="evenodd" d="M20.572 20.549c-.774.009-1.825-.096-2.502-.501l-.07-.043-.224-2.2.249-.123.083.11c.62.804 1.317 1.213 2.338 1.188.622-.015 1.225-.19 1.225-.908a.916.916 0 0 0-.155-.522c.32-.042.569-.126.694-.266.401-.448.202-1.3.061-1.737.838.494 1.382 1.159 1.382 2.405 0 1.751-1.469 2.582-3.081 2.602v-.005Z" clip-rule="evenodd"/><path fill="#B97D1C" fill-rule="evenodd" d="M22.057 20.269c.277-.355-.308-.5-1.105-.431.426-.33 1.65-1.556 1.81-2.108.128.637.283 1.481.697 1.225-.26.622-.771 1.058-1.402 1.314Z" clip-rule="evenodd"/><path fill="#D4A624" fill-rule="evenodd" d="M22.872 15.982c-.665-.616-1.5-.842-2.205-1.177.332.356.97 1.049-.118.918.477.287 1.667 1.146 2.074 1.5-.329-.95-.153-1.443.25-1.241Z" clip-rule="evenodd"/><path fill="url(#C)" fill-rule="evenodd" d="m17.903 19.063-.127-1.258.249-.123.083.11c.62.804 1.317 1.213 2.338 1.188.622-.015 1.225-.19 1.225-.908 0-.779-.84-1.068-1.44-1.317-1.316-.544-2.3-1.11-2.3-2.732a2.236 2.236 0 0 1 .796-1.7c.616-.532 1.44-.732 2.238-.732a7.464 7.464 0 0 1 1.918.257l.114.029.072.9c-.669-.255-1.427-.407-1.908-.4-1.07.015-2.322.359-2.288 1.602.018.618.325 1.123.905 1.484.532.33 1.146.505 1.697.79.635.33 1.106.807 1.18 1.561.129 1.305-1.077 1.92-2.22 1.992-.63.038-1.569-.207-2.532-.74v-.003Z" clip-rule="evenodd"/><path fill="url(#D)" fill-rule="evenodd" d="m17.903 19.063-.127-1.258.249-.123.083.11c.62.804 1.317 1.213 2.338 1.188.622-.015 1.225-.19 1.225-.908 0-.719-.71-1.018-1.291-1.254.707-.055 1.619.01 2.189.586.044.133.073.27.086.41.129 1.305-1.077 1.92-2.22 1.992-.63.035-1.569-.21-2.532-.743Z" clip-rule="evenodd"/><path fill="#E0B416" fill-rule="evenodd" d="M20.037 15.723c.06.226-.326.472-1.528-.013.415.459 1.02.754 1.723 1.043.315.13.697.274.988.49-.09-.495.528-.461 1.167 0-.137-.418-.406-.688-.732-.892a3.881 3.881 0 0 0-.18-.1c-.282-.147-.579-.264-.874-.385l-.01-.004-.024-.01c-.065.012-.517-.16-.53-.126v-.003Z" clip-rule="evenodd"/><path fill="#FFF0BD" fill-rule="evenodd" d="M22.52 18.338c-.006.202-.057.4-.149.581-.255.346-.652.586-1.097.728.086-.33.019-.713-.504-.696.45-.062.829-.253.891-.736.155.26.505.384.858.123Z" clip-rule="evenodd"/><path fill="#FEF8C2" fill-rule="evenodd" d="M19.545 11.835c-.186.175-.27.717.948.594-.725.116-1.398.433-1.575 1.12l-.008.012.004.005a1.561 1.561 0 0 0-.04.409c.002.115.016.23.041.343-.25-.3-.665-.52-.983-.165v-.13c-.001-.323.07-.643.208-.936.306.056.58.225.768.474.11-.275-.05-1.05-.578-.804.114-.162.247-.31.396-.44a2.78 2.78 0 0 1 .818-.484l.001.002Z" clip-rule="evenodd"/><path fill="url(#E)" fill-rule="evenodd" d="m22.997 11.873-.983.596c.339.278.741.933.868 1.66h.294l-.18-2.256Z" clip-rule="evenodd"/><path fill="#FEF8C2" fill-rule="evenodd" d="m18 20.006.863-.5c-.338-.278-.713-1.097-.838-1.825l-.25.124.224 2.203v-.002Z" clip-rule="evenodd"/><path fill="#FEF8C2" fill-rule="evenodd" d="M22.171 12.497c.12.155.604 1.057.713 1.631-.283-.617-.564-1.1-.935-1.56-1.006-.19-2.729-.098-2.97 1.163-.179.928.672 1.591 1.423 1.927.24.107.486.203.727.307.976.425 1.777 1.086 1.634 2.256-.127 1.042-.951 1.51-1.887 1.627-.673.075-1.354 0-1.995-.22l-.878.378.673-.512c-.354-.374-.65-1.331-.647-1.814.186.741.65 1.628.886 1.726a4.387 4.387 0 0 0 1.908.228c.855-.098 1.611-.507 1.725-1.44.13-1.064-.623-1.646-1.504-2.028-.242-.105-.488-.2-.728-.308-.857-.38-1.759-1.136-1.55-2.181.281-1.391 2.091-1.54 3.225-1.325l1.01-.479-.826.624h-.004Z" clip-rule="evenodd"/></g><defs><linearGradient id="b" x1="17.337" x2="14.249" y1="23.126" y2="7.114" gradientUnits="userSpaceOnUse"><stop stop-color="#734301"/><stop offset="1" stop-color="#B97D1C"/></linearGradient><linearGradient id="c" x1="16.935" x2="15.991" y1="25.09" y2="16.124" gradientUnits="userSpaceOnUse"><stop stop-color="#734301"/><stop offset="1" stop-color="#B97D1C"/></linearGradient><linearGradient id="d" x1="14.514" x2="16.483" y1="22.977" y2="13.95" gradientUnits="userSpaceOnUse"><stop stop-color="#734301"/><stop offset="1" stop-color="#B97D1C"/></linearGradient><linearGradient id="e" x1="13.94" x2="28.615" y1="21.472" y2="19.224" gradientUnits="userSpaceOnUse"><stop stop-color="#F6EC98"/><stop offset="1" stop-color="#F2D224"/></linearGradient><linearGradient id="f" x1="24.242" x2="28.494" y1="19.756" y2="19.567" gradientUnits="userSpaceOnUse"><stop stop-color="#F6EC98"/><stop offset="1" stop-color="#F2D224"/></linearGradient><linearGradient id="g" x1="4.044" x2="12.898" y1="11.612" y2="10.987" gradientUnits="userSpaceOnUse"><stop stop-color="#F6EC98"/><stop offset="1" stop-color="#F2D224"/></linearGradient><linearGradient id="h" x1="15.132" x2="15.98" y1="7.842" y2="16.016" gradientUnits="userSpaceOnUse"><stop stop-color="#F6EC98"/><stop offset=".46" stop-color="#F2D42D"/><stop offset="1" stop-color="#DDAE12"/></linearGradient><linearGradient id="i" x1="19.675" x2="14.106" y1="7.515" y2="5.83" gradientUnits="userSpaceOnUse"><stop stop-color="#734301"/><stop offset="1" stop-color="#B97D1C"/></linearGradient><linearGradient id="j" x1="15.745" x2="16.088" y1="3.866" y2="7.284" gradientUnits="userSpaceOnUse"><stop stop-color="#F6EC98"/><stop offset=".46" stop-color="#F2D42D"/><stop offset="1" stop-color="#DDAE12"/></linearGradient><linearGradient id="k" x1="16.267" x2="15.766" y1="8.997" y2="4.148" gradientUnits="userSpaceOnUse"><stop stop-color="#127FAA"/><stop offset="1" stop-color="#51E7F7"/></linearGradient><linearGradient id="l" x1="15.879" x2="16.978" y1="8.096" y2="8.096" gradientUnits="userSpaceOnUse"><stop stop-color="#3CD8EE"/><stop offset="1" stop-color="#28A7C1"/></linearGradient><linearGradient id="m" x1="15.608" x2="17.723" y1="4.598" y2="6.959" gradientUnits="userSpaceOnUse"><stop stop-color="#0A789D"/><stop offset="1" stop-color="#50E7F2"/></linearGradient><linearGradient id="n" x1="16.118" x2="15.131" y1="8.217" y2="6.156" gradientUnits="userSpaceOnUse"><stop stop-color="#42CBE7"/><stop offset="1" stop-color="#1172A1"/></linearGradient><linearGradient id="o" x1="13.324" x2="15.999" y1="5.065" y2="5.065" gradientUnits="userSpaceOnUse"><stop stop-color="#4FE7F7"/><stop offset="1" stop-color="#F1FBFD"/></linearGradient><linearGradient id="p" x1="15.77" x2="16.241" y1="5.057" y2="7.818" gradientUnits="userSpaceOnUse"><stop stop-color="#077DA1"/><stop offset="1" stop-color="#1FE6F6"/></linearGradient><linearGradient id="q" x1="16.119" x2="15.878" y1="7.884" y2="4.892" gradientUnits="userSpaceOnUse"><stop stop-color="#4FE7F7"/><stop offset="1" stop-color="#F1FBFD"/></linearGradient><linearGradient id="r" x1="15.987" x2="16.01" y1="3.625" y2="4.805" gradientUnits="userSpaceOnUse"><stop stop-color="#4FE7F7"/><stop offset="1" stop-color="#F1FBFD"/></linearGradient><linearGradient id="s" x1="16.553" x2="16.032" y1="10.045" y2="6.401" gradientUnits="userSpaceOnUse"><stop stop-color="#734301"/><stop offset="1" stop-color="#B97D1C"/></linearGradient><linearGradient id="t" x1="15.785" x2="15.973" y1="9.216" y2="6.804" gradientUnits="userSpaceOnUse"><stop stop-color="#F6EC98"/><stop offset=".46" stop-color="#F2D42D"/><stop offset="1" stop-color="#DDAE12"/></linearGradient><linearGradient id="u" x1="10.053" x2="14.283" y1="13.056" y2="19.068" gradientUnits="userSpaceOnUse"><stop stop-color="#F7E158"/><stop offset="1" stop-color="#98660E"/></linearGradient><linearGradient id="v" x1="14.902" x2="12.89" y1="19.656" y2="16.999" gradientUnits="userSpaceOnUse"><stop stop-color="#B97D1C"/><stop offset=".21" stop-color="#744401"/><stop offset=".41" stop-color="#764602"/><stop offset="1" stop-color="#98660E"/></linearGradient><linearGradient id="w" x1="14.702" x2="9.636" y1="18.685" y2="13.447" gradientUnits="userSpaceOnUse"><stop stop-color="#F7E158"/><stop offset="1" stop-color="#98660E"/></linearGradient><linearGradient id="x" x1="9.886" x2="11.45" y1="13.408" y2="15.192" gradientUnits="userSpaceOnUse"><stop stop-color="#734301"/><stop offset="1" stop-color="#B97D1C"/></linearGradient><linearGradient id="y" x1="11.018" x2="11.623" y1="14.023" y2="10.854" gradientUnits="userSpaceOnUse"><stop stop-color="#F6EC98"/><stop offset="1" stop-color="#F2D224"/></linearGradient><linearGradient id="z" x1="18.052" x2="20.147" y1="14.047" y2="15.673" gradientUnits="userSpaceOnUse"><stop stop-color="#734301"/><stop offset="1" stop-color="#B97D1C"/></linearGradient><linearGradient id="A" x1="19.88" x2="21.68" y1="12.603" y2="14.833" gradientUnits="userSpaceOnUse"><stop stop-color="#764602"/><stop offset="1" stop-color="#98660E"/></linearGradient><linearGradient id="B" x1="20.628" x2="21.324" y1="18.074" y2="20.419" gradientUnits="userSpaceOnUse"><stop stop-color="#AE7417"/><stop offset="1" stop-color="#764602"/></linearGradient><linearGradient id="C" x1="19.055" x2="22.142" y1="12.778" y2="18.756" gradientUnits="userSpaceOnUse"><stop stop-color="#F6EC98"/><stop offset=".46" stop-color="#F2D42D"/><stop offset="1" stop-color="#DDAE12"/></linearGradient><linearGradient id="D" x1="21.067" x2="19.69" y1="19.882" y2="17.164" gradientUnits="userSpaceOnUse"><stop stop-color="#F6EC98"/><stop offset=".46" stop-color="#F2D42D"/><stop offset="1" stop-color="#DDAE12"/></linearGradient><linearGradient id="E" x1="22.383" x2="23.529" y1="12.351" y2="13.708" gradientUnits="userSpaceOnUse"><stop stop-color="#734301"/><stop offset="1" stop-color="#B97D1C"/></linearGradient><clipPath id="a"><path fill="#fff" d="M1.186 2.497h29.629v22.99H1.185z"/></clipPath></defs></svg>