<svg width="209" height="46" viewBox="0 0 209 46" fill="none" xmlns="http://www.w3.org/2000/svg">
<g clip-path="url(#clip0_54_6)">
<path fill-rule="evenodd" clip-rule="evenodd" d="M15.1098 11.8857H193.808L205.574 26.9193L193.808 42.0467H15.1094L3.34399 26.9193L15.1098 11.8857Z" fill="#0C2E4B"/>
<path fill-rule="evenodd" clip-rule="evenodd" d="M5.76196 26.9471L0.534987 27.6577L0 26.9458L14.4427 8.13802H23.5937L25.0047 9.55521H183.996L185.408 8.1377H194.559L209 26.9458L208.469 27.6528L203.238 26.9481L192.847 13.4205H16.1531L5.76196 26.9471Z" fill="url(#paint0_linear_54_6)"/>
<path fill-rule="evenodd" clip-rule="evenodd" d="M183.991 44.3545H25.0087L23.5976 45.772H14.4378L0 26.9463L5.76196 26.9476L16.1571 40.4716L192.84 40.4791L203.236 26.9476L209 26.9463L194.562 45.772H185.402L183.991 44.3545Z" fill="url(#paint1_linear_54_6)"/>
<path fill-rule="evenodd" clip-rule="evenodd" d="M185.705 45.0549L184.294 43.6378H24.7061L23.295 45.0549H14.795L0.893555 26.9512H4.86587L15.7986 41.1896H193.2L204.137 26.9512H208.105L194.204 45.0549H185.705Z" fill="url(#paint2_linear_54_6)"/>
<path fill-rule="evenodd" clip-rule="evenodd" d="M16.1535 40.4801L192.841 40.4788L203.236 26.9473L204.138 26.9509L193.201 41.1893L15.6465 41.5749L16.1535 40.4801Z" fill="url(#paint3_linear_54_6)"/>
<path fill-rule="evenodd" clip-rule="evenodd" d="M192.84 40.4788L203.235 26.9473L204.137 26.9509L193.2 41.1893L192.84 40.4788Z" fill="url(#paint4_linear_54_6)"/>
<path fill-rule="evenodd" clip-rule="evenodd" d="M184.295 10.2641L194.205 8.84564L194.544 8.1377H185.408L183.996 9.55489L184.295 10.2641Z" fill="#F4DF5D"/>
<path fill-rule="evenodd" clip-rule="evenodd" d="M184.295 10.2641L185.706 8.84564L185.408 8.1377L183.996 9.55489L184.295 10.2641Z" fill="#F6E98D"/>
<path fill-rule="evenodd" clip-rule="evenodd" d="M23.5937 8.1377L23.2956 8.84564L20.6798 10.5489L14.5179 11.2898L1.95757 26.9572L0 26.9458L0.541231 26.2415L14.4427 8.1377H23.5937Z" fill="url(#paint5_linear_54_6)"/>
<path fill-rule="evenodd" clip-rule="evenodd" d="M185.705 8.8457L184.294 10.2645H24.7061L23.295 8.8457H14.795L0.893555 26.9508L4.84287 26.9736L15.7986 12.711H193.2L204.137 26.9508H208.105L194.204 8.8457H185.705Z" fill="url(#paint6_linear_54_6)"/>
<path fill-rule="evenodd" clip-rule="evenodd" d="M193.852 45.0551H194.205L197.02 41.3881L194.544 39.4372L193.208 41.1898H188.225L193.858 45.0551H193.852ZM198.564 39.384L200.29 37.0892L197.837 35.1572L196.089 37.4331L198.557 39.384H198.564Z" fill="#B97D1C"/>
<path fill-rule="evenodd" clip-rule="evenodd" d="M37.987 10.2642H33.3473L36.455 12.712H41.0961L37.987 10.2642ZM29.2616 10.2642H24.7083L23.2959 8.85059H18.9148L23.8233 12.7172H32.3687L29.2613 10.2691L29.2616 10.2642Z" fill="#FEF8C2"/>
<path fill-rule="evenodd" clip-rule="evenodd" d="M184.714 26.047V21.8111C184.714 21.0904 184.542 19.132 183.865 18.6932L183.218 18.2733V16.0304H192.851V18.2733L192.204 18.6932C191.481 19.1624 191.268 21.036 191.268 21.8111V33.3033C191.268 34.0784 191.481 35.9524 192.204 36.4215L192.851 36.8401V39.0843H184.272L183.91 38.1992C183.527 37.3123 183.072 36.4577 182.55 35.6437L178.416 28.9881V33.301C178.416 34.0217 178.589 35.9801 179.264 36.4189L179.913 36.8388V39.0817H170.281V36.8577L170.908 36.4352C171.638 35.9422 171.866 34.1026 171.866 33.3033V21.6708C171.866 20.8908 171.622 19.162 170.911 18.6857L170.281 18.2645V16.0304H179.662L179.789 17.3073C179.858 17.9849 180.449 18.9346 180.798 19.515L184.716 26.047H184.714ZM134.719 32.4626C134.719 31.1856 132.775 30.5873 131.817 30.1952C128.124 28.6782 125.534 26.9739 125.534 22.6003C125.537 21.6635 125.746 20.7386 126.145 19.8897C126.544 19.0408 127.124 18.2882 127.845 17.6842C129.546 16.2252 131.793 15.6611 134.004 15.6611C135.681 15.6677 137.35 15.8882 138.971 16.3172L139.958 16.5704L140.543 23.8785H138.161L137.738 23.2361C136.886 21.9403 135.828 21.494 134.3 21.494C133.701 21.494 132.353 21.4646 132.353 22.3158C132.353 23.2273 134.355 23.8736 135.028 24.1493C138.928 25.756 141.632 27.5781 141.632 32.1781C141.632 37.055 137.541 39.4751 133.061 39.5306C130.943 39.556 128.222 39.2601 126.383 38.1649L125.769 37.7995L125.098 31.2248L127.092 30.2422L127.808 31.1641C129.118 32.8521 130.531 33.7192 132.715 33.6664C133.607 33.6448 134.726 33.5727 134.726 32.4652L134.719 32.4626ZM150.044 32.426V33.4237C150.044 34.1949 150.26 35.9586 150.98 36.4251L151.628 36.8449V39.0882H141.584V36.8577L142.209 36.4352C142.94 35.9422 143.168 34.1026 143.168 33.3033V21.695C143.168 20.9237 142.951 19.1597 142.231 18.6932L141.584 18.2733V16.0304H151.021C156.097 16.0304 159.844 18.7121 159.844 24.024C159.844 29.5646 156.467 32.4221 151.021 32.4221L150.044 32.426ZM159.596 39.0882V36.8577L160.221 36.4352C160.952 35.9422 161.18 34.1026 161.18 33.3033V21.8124C161.18 21.0285 160.977 19.1699 160.244 18.6945L159.596 18.276V16.0314H169.67V18.2583L169.045 18.6805C168.314 19.1725 168.086 21.0131 168.086 21.8124V33.3033C168.086 34.0872 168.288 35.9462 169.023 36.4215L169.67 36.8401V39.0843L159.596 39.0882ZM150.044 21.7481V26.7044H150.371C152.188 26.7347 152.82 25.9991 152.82 24.225C152.82 22.3589 152.232 21.7429 150.347 21.7429L150.044 21.7481Z" fill="#06223B"/>
<path fill-rule="evenodd" clip-rule="evenodd" d="M132.875 37.9167C130.976 37.9409 128.394 37.6828 126.734 36.6953L126.558 36.5915L126.01 31.2229L126.621 30.9221L126.827 31.1851C128.355 33.1461 130.062 34.1424 132.567 34.0818C134.095 34.0452 135.571 33.6201 135.571 31.8692C135.571 29.9724 133.509 29.2668 132.04 28.6652C128.801 27.3387 126.388 25.9593 126.388 22.0066C126.392 21.2152 126.568 20.434 126.906 19.7172C127.244 19.0004 127.735 18.3652 128.345 17.8555C129.857 16.561 131.879 16.0742 133.838 16.0742C135.429 16.0788 137.013 16.2882 138.55 16.6973L138.832 16.7694L139.271 22.2659H138.55L138.429 22.0826C137.378 20.484 135.997 19.8798 134.133 19.8798C132.853 19.8798 131.169 20.1023 131.169 21.7159C131.169 23.3292 133.244 23.9803 134.466 24.4837C137.917 25.9061 140.44 27.4003 140.44 31.5782C140.44 35.8444 136.835 37.8688 132.878 37.9167H132.875ZM148.858 30.8197V32.8287C148.858 33.9956 149.167 35.972 150.259 36.679L150.443 36.7977V37.4805H142.44V36.8026L142.618 36.6825C143.71 35.9469 144.019 33.901 144.019 32.7125V21.1049C144.019 19.9369 143.711 17.9618 142.618 17.2552L142.434 17.1348V16.452H150.851C155.377 16.452 158.653 18.704 158.653 23.4316C158.653 28.411 155.724 30.8197 150.851 30.8197H148.858ZM160.448 37.4805V36.8026L160.627 36.6825C161.717 35.9456 162.028 33.901 162.028 32.7125V21.2226C162.028 20.0394 161.741 17.9769 160.627 17.2562L160.442 17.1361V16.4533H168.476V17.1312L168.297 17.2575C167.207 17.9922 166.896 20.0394 166.896 21.2279V32.7174C166.896 33.8997 167.182 35.9632 168.297 36.6839L168.482 36.8026V37.4854L160.448 37.4805ZM185.698 29.8726C185.602 28.7422 185.571 27.6081 185.571 26.4588V21.2203C185.571 20.0821 185.335 17.9514 184.258 17.2549L184.073 17.1348V16.452H191.667V17.1348L191.483 17.2549C190.38 17.9694 190.082 20.0469 190.082 21.2203V32.7125C190.082 33.8857 190.379 35.9632 191.483 36.679L191.667 36.7977V37.4805H184.79L184.686 37.2277C184.281 36.2897 183.801 35.3853 183.25 34.5232L179.114 27.862C178.334 26.622 177.653 25.3237 177.076 23.979C177.181 25.2233 177.223 26.465 177.223 27.7722V32.7174C177.223 33.8491 177.459 35.986 178.535 36.6839L178.72 36.8026V37.4854H171.127V36.8078L171.306 36.6878C172.396 35.9518 172.707 33.9059 172.707 32.7174V21.085C172.707 19.8965 172.356 17.9667 171.306 17.2614L171.127 17.1414V16.4618H178.563L178.6 16.8272C178.689 17.7123 179.302 18.7099 179.747 19.4521L183.971 26.4937C184.616 27.5867 185.192 28.7185 185.696 29.8824L185.698 29.8726ZM148.852 20.1428V27.1074L150.182 27.1289C152.584 27.1694 153.671 25.9796 153.671 23.6352C153.671 21.2014 152.634 20.1428 150.176 20.1428H148.852Z" fill="url(#paint7_linear_54_6)"/>
<path fill-rule="evenodd" clip-rule="evenodd" d="M155.728 25.3789C155.543 27.2173 153.658 28.4136 151.78 28.4893C152.375 28.0228 152.178 27.3246 151.366 27.0316C151.751 26.958 152.118 26.8111 152.446 26.599C152.745 26.4349 152.988 26.1874 153.147 25.8872C153.222 25.7688 153.289 25.6448 153.345 25.5166C153.506 26.3827 154.698 26.4522 155.734 25.3789H155.728Z" fill="#FFF0BD"/>
<path fill-rule="evenodd" clip-rule="evenodd" d="M144.02 20.9444C144.001 20.0926 143.823 18.8989 143.334 18.0467C143.444 17.4803 143.66 16.9394 143.971 16.4524H150.859C152.097 16.4333 153.328 16.6354 154.494 17.0491C154.584 17.1754 155.602 19.3755 155.479 20.6854C155.701 21.0889 155.718 23.4356 153.552 24.8769C153.642 24.4691 153.685 24.0528 153.68 23.6353C153.68 21.2015 152.643 20.1432 150.185 20.1432H148.862V25.1285C146.81 24.1716 145.007 22.1789 144.022 20.9447L144.02 20.9444Z" fill="url(#paint8_linear_54_6)"/>
<path fill-rule="evenodd" clip-rule="evenodd" d="M146.469 29.0557V18.292L148.857 20.1431V27.1051L146.469 28.9193L146.79 29.0563H146.469V29.0557Z" fill="url(#paint9_linear_54_6)"/>
<path fill-rule="evenodd" clip-rule="evenodd" d="M148.857 32.8296C148.857 33.9966 149.167 35.9726 150.258 36.6796L150.443 36.7983V37.4812H146.465V29.0566H146.786L148.853 29.9316L148.857 32.8296Z" fill="url(#paint10_linear_54_6)"/>
<path fill-rule="evenodd" clip-rule="evenodd" d="M146.466 28.9195H149.428C154.309 28.9195 156.197 27.2491 156.197 23.5632C156.197 20.0659 153.956 18.2882 149.428 18.2882H146.444L142.435 16.4482H150.852C155.378 16.4482 158.654 18.7006 158.654 23.4282C158.654 28.4073 155.725 30.8159 150.852 30.8159H148.854L146.466 28.9195Z" fill="url(#paint11_linear_54_6)"/>
<path fill-rule="evenodd" clip-rule="evenodd" d="M153.406 30.5613C153.986 29.7457 153.355 29.2792 150.917 29.1337C153.041 28.3194 155.071 27.6167 156.173 25.3467C155.953 27.5557 156.061 28.9516 157.5 27.921C156.609 29.2828 155.208 30.1578 153.406 30.5613Z" fill="#B97D1C"/>
<path fill-rule="evenodd" clip-rule="evenodd" d="M146.466 16.4521V37.4807H142.434V36.8031L142.613 36.683C143.704 35.947 144.014 33.9012 144.014 32.7127V21.1053C144.014 19.9374 143.706 17.962 142.613 17.2554L142.428 17.135V16.4525L146.466 16.4521Z" fill="url(#paint12_linear_54_6)"/>
<path fill-rule="evenodd" clip-rule="evenodd" d="M160.452 37.481V36.8034L160.632 36.6833C161.722 35.946 162.033 33.9015 162.033 32.713V21.2234C162.033 20.0398 161.746 17.9773 160.632 17.257L160.447 17.1366V16.4541H168.481V17.1317L168.301 17.2583C167.211 17.9927 166.9 20.0398 166.9 21.2286V32.7182C166.9 33.9002 167.187 35.9636 168.301 36.6846L168.486 36.8034V37.4862L160.452 37.481Z" fill="url(#paint13_linear_54_6)"/>
<path fill-rule="evenodd" clip-rule="evenodd" d="M166.903 32.8436C166.924 34.036 167.238 35.9895 168.304 36.6786L168.49 36.7976V37.4805H167.331C166.426 37.2583 165.533 36.9882 164.657 36.6711C164.657 36.6711 164.434 31.1191 164.704 27.8984C164.849 30.4275 165.615 32.7565 166.903 32.8436Z" fill="url(#paint14_linear_54_6)"/>
<path fill-rule="evenodd" clip-rule="evenodd" d="M160.452 37.481V36.8034L160.632 36.6833C161.722 35.946 162.033 33.9015 162.033 32.713V21.2234C162.033 20.0398 161.746 17.9773 160.632 17.257L160.447 17.1366V16.4541H164.428V37.481H160.452Z" fill="url(#paint15_linear_54_6)"/>
<path fill-rule="evenodd" clip-rule="evenodd" d="M185.704 29.8734C185.607 28.743 185.576 27.6089 185.576 26.4596V21.2211C185.576 20.0907 185.341 17.9525 184.263 17.256L184.078 17.1356V16.4531H191.673V17.1359L191.488 17.256C190.385 17.9705 190.087 20.0476 190.087 21.2211V32.7133C190.087 33.8868 190.384 35.964 191.488 36.6797L191.673 36.7985V37.4813H184.796L184.691 37.2285C184.286 36.2905 183.806 35.3861 183.256 34.5239L179.119 27.8631C178.34 26.6231 177.658 25.3249 177.081 23.9802C177.187 25.2241 177.229 26.4661 177.229 27.7734V32.7182C177.229 33.8499 177.465 35.9868 178.541 36.685L178.725 36.8037V37.4865H171.132V36.8086L171.312 36.6886C172.402 35.9526 172.713 33.907 172.713 32.7182V21.0857C172.713 19.8973 172.361 17.9679 171.312 17.2622L171.132 17.1421V16.4632H178.57L178.607 16.8286C178.695 17.7137 179.308 18.711 179.753 19.4536L183.978 26.4948C184.623 27.5878 185.199 28.7195 185.702 29.8835L185.704 29.8734Z" fill="url(#paint16_linear_54_6)"/>
<path fill-rule="evenodd" clip-rule="evenodd" d="M185.693 29.8734L187.791 34.9892L187.783 37.4826L175.848 18.4305L175.195 16.4531H178.571L178.608 16.8185C178.696 17.7036 179.308 18.7009 179.754 19.4435L183.979 26.4847C184.62 27.5781 185.193 28.7098 185.693 29.8734Z" fill="url(#paint17_linear_54_6)"/>
<path fill-rule="evenodd" clip-rule="evenodd" d="M187.83 37.4813H184.793C184.364 36.4549 183.848 35.4661 183.252 34.5253L179.116 27.8644C178.345 26.6283 177.664 25.3391 177.078 24.0066L174.785 16.4531L175.846 18.4305L187.829 37.4813H187.83Z" fill="url(#paint18_linear_54_6)"/>
<path fill-rule="evenodd" clip-rule="evenodd" d="M186.353 37.4807H184.794C184.331 36.3578 182.478 33.279 181.841 32.251C184.604 34.7458 184.031 32.5192 183.015 30.6414L181.953 28.6807L186.956 36.0922C186.774 36.5638 186.573 37.0279 186.353 37.4833V37.4807Z" fill="url(#paint19_linear_54_6)"/>
<path fill-rule="evenodd" clip-rule="evenodd" d="M185.703 29.8734C185.606 28.743 185.575 27.6089 185.575 26.4596V21.2211C185.575 20.0907 185.34 17.9525 184.262 17.256L184.078 17.1356V16.4531H188.011L187.836 37.4813L187.799 34.9892L185.709 29.8737L185.703 29.8734Z" fill="url(#paint20_linear_54_6)"/>
<path fill-rule="evenodd" clip-rule="evenodd" d="M177.082 23.9811C177.187 25.2251 177.229 26.4671 177.229 27.7743V32.7195C177.229 33.8509 177.465 35.9878 178.541 36.6859L178.726 36.8047V37.4875H174.787L174.955 16.459H175.407L177.082 23.9811Z" fill="url(#paint21_linear_54_6)"/>
<path fill-rule="evenodd" clip-rule="evenodd" d="M187.793 16.4521H191.666V17.135L191.481 17.2554C190.378 17.9698 190.08 20.047 190.08 21.2205V32.7127C190.08 33.8861 190.377 35.9633 191.481 36.6791L191.666 36.7979V37.4807H187.793V16.4521Z" fill="url(#paint22_linear_54_6)"/>
<path fill-rule="evenodd" clip-rule="evenodd" d="M190.083 32.8447C190.105 34.0371 190.418 35.9907 191.484 36.6797L191.669 36.7984V37.4812H190.51C189.604 37.2591 188.711 36.989 187.835 36.6722C187.835 36.6722 187.792 31.3616 188.062 28.1348C188.063 28.1348 188.188 33.3605 190.083 32.8447Z" fill="url(#paint23_linear_54_6)"/>
<path fill-rule="evenodd" clip-rule="evenodd" d="M174.955 37.3551L171.135 37.4813V36.8037L171.314 36.6837C172.405 35.9477 172.715 33.9018 172.715 32.7133V21.0808C172.715 19.8923 172.364 17.9626 171.314 17.2573L171.135 17.1372V16.458H174.955V37.3551Z" fill="url(#paint24_linear_54_6)"/>
<path fill-rule="evenodd" clip-rule="evenodd" d="M174.685 20.8516V28.1346C174.266 25.9941 173.591 24.0947 172.718 25.292V21.1462C172.938 21.8215 173.901 22.5066 174.685 20.8516Z" fill="#FEF8C2"/>
<path fill-rule="evenodd" clip-rule="evenodd" d="M178.727 37.4806L174.955 35.0781C174.271 35.9038 172.565 36.6676 171.135 36.8079V37.4858L178.727 37.4806Z" fill="url(#paint25_linear_54_6)"/>
<path fill-rule="evenodd" clip-rule="evenodd" d="M184.793 37.4811L187.793 34.9736C188.476 35.7993 189.878 36.491 191.666 36.7983V37.4811H184.789H184.793Z" fill="url(#paint26_linear_54_6)"/>
<path fill-rule="evenodd" clip-rule="evenodd" d="M178.571 16.4521L174.955 19.0777C174.271 18.252 172.918 17.4338 171.135 17.1317V16.4521H178.571ZM184.071 16.4521L187.793 18.9179C188.476 18.0925 189.636 17.4857 191.666 17.135V16.4525L184.071 16.4521Z" fill="#F5E885"/>
<path d="M175.029 18.6934C175.879 18.0765 177.596 16.7843 178.571 16.4531L176.601 18.16C176.49 18.2542 176.418 18.3847 176.396 18.5277C176.375 18.6707 176.406 18.8166 176.484 18.9388L186.64 35.151C186.67 35.2024 186.713 35.246 186.763 35.2785C186.814 35.311 186.871 35.3314 186.931 35.3382C187.299 35.3875 187.524 34.9588 187.524 34.6404V19.0614L184.074 16.4782L187.768 18.5848C188.229 18.2129 189.737 17.2169 191.66 17.1356C189.851 17.624 189.229 17.8945 188.056 19.0324V34.4329C188.054 34.5834 188.086 34.7323 188.151 34.8682C188.216 35.0042 188.311 35.1235 188.43 35.2169C189.547 36.1235 190.644 36.3434 191.66 36.8239C190.677 36.8455 189.292 36.2638 188.404 35.7529C188.194 35.6298 187.953 35.5723 187.71 35.5881C187.468 35.6039 187.236 35.6922 187.044 35.8413C186.312 36.4015 185.621 36.9365 184.788 37.5055C185.236 37.0099 185.794 36.361 186.397 35.7858L175.997 19.1867C175.769 18.8239 175.217 19.0249 175.217 19.4193V35.074C175.216 35.1409 175.191 35.2052 175.145 35.2547C174.72 35.7757 172.677 36.8416 171.124 36.8037C172.409 36.408 173.609 36.1398 174.676 34.9777V19.5446C174.679 19.3893 174.65 19.2352 174.592 19.091C174.534 18.9469 174.447 18.8156 174.338 18.7048C173.476 17.8083 171.942 17.4214 171.127 17.1562C172.877 17.2433 174.227 17.9411 175.02 18.6934H175.029Z" fill="url(#paint27_linear_54_6)"/>
<path fill-rule="evenodd" clip-rule="evenodd" d="M168.486 37.4806L164.433 35.0781C163.751 35.9038 161.886 36.6676 160.452 36.8079V37.4858L168.486 37.4806Z" fill="url(#paint28_linear_54_6)"/>
<path fill-rule="evenodd" clip-rule="evenodd" d="M150.442 37.4808L146.666 35.1338C145.982 35.9608 143.864 36.6626 142.438 36.8028V37.4808H150.442Z" fill="url(#paint29_linear_54_6)"/>
<path fill-rule="evenodd" clip-rule="evenodd" d="M155.698 21.089C154.807 19.2314 152.724 18.2921 149.432 18.2921H146.448L142.438 16.4521H150.856C155.592 16.4521 158.806 18.88 158.652 23.8089C157.944 22.165 157.1 21.6329 155.698 21.089Z" fill="url(#paint30_linear_54_6)"/>
<path fill-rule="evenodd" clip-rule="evenodd" d="M168.486 16.4541L164.433 18.7603C163.751 17.9346 161.886 17.272 160.452 17.1317V16.4541H168.486Z" fill="#F5E885"/>
<path fill-rule="evenodd" clip-rule="evenodd" d="M132.875 37.9167C130.976 37.9409 128.394 37.6828 126.734 36.6953L126.558 36.5915L126.01 31.2229L126.621 30.9221L126.827 31.1851C128.355 33.1461 130.062 34.1424 132.567 34.0818C134.095 34.0452 135.571 33.6201 135.571 31.8692C135.571 29.9724 133.509 29.2668 132.04 28.6652C128.801 27.3387 126.388 25.9593 126.388 22.0066C126.392 21.2152 126.568 20.434 126.906 19.7172C127.244 19.0004 127.735 18.3652 128.345 17.8555C129.857 16.561 131.879 16.0742 133.838 16.0742C135.429 16.0788 137.013 16.2882 138.55 16.6973L138.832 16.7694L139.271 22.2659H138.55L138.429 22.0826C137.378 20.484 135.997 19.8798 134.133 19.8798C132.853 19.8798 131.169 20.1023 131.169 21.7159C131.169 23.3292 133.244 23.9803 134.466 24.4837C137.917 25.9061 140.44 27.4003 140.44 31.5782C140.44 35.8444 136.835 37.8688 132.878 37.9167H132.875Z" fill="url(#paint31_linear_54_6)"/>
<path fill-rule="evenodd" clip-rule="evenodd" d="M139.061 19.6667L139.268 22.2662H138.548L138.426 22.0829C137.376 20.4846 135.994 19.8804 134.131 19.8804C132.851 19.8804 131.166 20.1029 131.166 21.7162C131.165 21.9551 131.214 22.1917 131.311 22.4104C129.837 23.7216 133.142 26.2885 133.142 26.2885C128.6 27.0949 127.526 20.9309 127.551 19.4227C127.577 17.9142 132.009 16.7952 134.86 16.9253C136.428 16.9961 137.98 18.4071 139.061 19.6667Z" fill="url(#paint32_linear_54_6)"/>
<path fill-rule="evenodd" clip-rule="evenodd" d="M132.875 37.9172C130.976 37.9411 128.394 37.6833 126.734 36.6958L126.558 36.592L126.01 31.2234L126.621 30.9223L126.827 31.1852C128.355 33.1466 130.062 34.143 132.567 34.0823C134.095 34.0454 135.571 33.6206 135.571 31.8694C135.577 31.4167 135.443 30.9731 135.189 30.5974C135.974 30.4949 136.59 30.2927 136.897 29.9501C137.882 28.8575 137.391 26.7803 137.046 25.7168C139.102 26.9206 140.437 28.5404 140.437 31.5787C140.438 35.8446 136.834 37.869 132.875 37.9172Z" fill="url(#paint33_linear_54_6)"/>
<path fill-rule="evenodd" clip-rule="evenodd" d="M136.519 37.2321C137.2 36.3659 135.762 36.0146 133.806 36.18C134.852 35.3745 137.86 32.3868 138.264 31.0439C138.578 32.5978 138.958 34.6551 139.971 34.0307C139.327 35.5477 138.075 36.606 136.524 37.2321H136.519Z" fill="#B97D1C"/>
<path fill-rule="evenodd" clip-rule="evenodd" d="M138.523 26.7837C136.89 25.2813 134.838 24.7303 133.107 23.916C133.923 24.7819 135.49 26.4724 132.819 26.1514C133.989 26.8519 136.912 28.9457 137.913 29.8066C137.104 27.4942 137.535 26.2917 138.523 26.7837Z" fill="#D4A624"/>
<path fill-rule="evenodd" clip-rule="evenodd" d="M126.323 34.2915L126.01 31.2229L126.621 30.9221L126.827 31.1851C128.355 33.1461 130.062 34.1424 132.567 34.0818C134.095 34.0452 135.571 33.6201 135.571 31.8692C135.571 29.9724 133.509 29.2668 132.04 28.6652C128.801 27.3387 126.388 25.9593 126.388 22.0066C126.392 21.2152 126.568 20.434 126.906 19.7172C127.244 19.0004 127.735 18.3652 128.345 17.8555C129.857 16.561 131.879 16.0742 133.838 16.0742C135.429 16.0788 137.013 16.2882 138.55 16.6973L138.832 16.7694L139.007 18.9631C137.367 18.3422 135.499 17.972 134.323 17.9883C131.698 18.0251 128.621 18.8646 128.707 21.8927C128.749 23.4 129.502 24.6328 130.928 25.5091C132.233 26.3133 133.74 26.7407 135.091 27.4372C136.652 28.243 137.812 29.4035 137.992 31.2405C138.307 34.422 135.346 35.9188 132.54 36.0947C130.994 36.1883 128.689 35.589 126.326 34.2915H126.323Z" fill="url(#paint34_linear_54_6)"/>
<path fill-rule="evenodd" clip-rule="evenodd" d="M126.323 34.2924L126.01 31.2235L126.621 30.9227L126.827 31.1856C128.355 33.1467 130.062 34.143 132.567 34.0823C134.095 34.0458 135.571 33.621 135.571 31.8698C135.571 30.1185 133.826 29.389 132.402 28.8135C134.139 28.6746 136.376 28.839 137.777 30.2425C137.886 30.5661 137.958 30.9015 137.99 31.2414C138.304 34.4226 135.343 35.9197 132.538 36.0952C130.991 36.1889 128.686 35.5896 126.323 34.2924Z" fill="url(#paint35_linear_54_6)"/>
<path fill-rule="evenodd" clip-rule="evenodd" d="M131.565 26.1537C131.713 26.7038 130.762 27.3021 127.812 26.1221C128.832 27.2375 130.318 27.9595 132.042 28.6648C132.815 28.9812 133.753 29.3261 134.462 29.8585C134.243 28.6521 135.759 28.7369 137.33 29.8585C136.993 28.8472 136.331 28.1833 135.529 27.6851C135.387 27.6003 135.239 27.5181 135.086 27.4398C134.397 27.0842 133.667 26.7987 132.945 26.4976L132.921 26.4878L132.86 26.4623C132.699 26.4927 131.586 26.0754 131.56 26.1563L131.565 26.1537Z" fill="#E0B416"/>
<path fill-rule="evenodd" clip-rule="evenodd" d="M137.658 32.5267C137.644 33.0196 137.519 33.5031 137.292 33.9416C136.666 34.7863 135.69 35.3702 134.598 35.718C134.809 34.919 134.646 33.9729 133.363 34.0212C134.464 33.8682 135.401 33.403 135.55 32.2256C135.932 32.8578 136.789 33.1678 137.658 32.5267Z" fill="#FFF0BD"/>
<path fill-rule="evenodd" clip-rule="evenodd" d="M130.354 16.6748C129.895 17.1035 129.689 18.4222 132.682 18.124C130.899 18.4085 129.249 19.1797 128.814 20.8549L128.795 20.883L128.804 20.8954C128.726 21.2221 128.693 21.5576 128.704 21.893C128.711 22.1743 128.746 22.4542 128.808 22.7289C128.191 21.9955 127.176 21.4644 126.395 22.3243V22.0069C126.392 21.2174 126.566 20.4377 126.905 19.7232C127.657 19.8592 128.331 20.2715 128.791 20.8781C129.054 20.2165 128.664 18.3223 127.374 18.9206C127.653 18.5277 127.979 18.1701 128.345 17.8558C128.942 17.3508 129.622 16.9513 130.355 16.6748H130.354Z" fill="#FEF8C2"/>
<path fill-rule="evenodd" clip-rule="evenodd" d="M138.824 16.7695L136.404 18.2213C137.238 18.8999 138.227 20.4906 138.537 22.2673H139.258L138.824 16.7695Z" fill="url(#paint36_linear_54_6)"/>
<path fill-rule="evenodd" clip-rule="evenodd" d="M126.558 36.5926L128.68 35.3738C127.848 34.6945 126.932 32.6983 126.621 30.9229L126.01 31.224L126.558 36.5926Z" fill="#FEF8C2"/>
<path fill-rule="evenodd" clip-rule="evenodd" d="M136.799 18.2915C137.092 18.6705 138.286 20.8655 138.547 22.2667C137.85 20.7608 137.161 19.5824 136.255 18.4621C133.785 17.9991 129.555 18.2242 128.962 21.2981C128.523 23.5615 130.617 25.1797 132.458 25.9953C133.048 26.2481 133.649 26.4886 134.241 26.744C136.638 27.7782 138.604 29.3905 138.255 32.2389C137.943 34.7829 135.917 35.9222 133.621 36.2054C131.969 36.3894 130.296 36.2072 128.724 35.6719L126.558 36.5923L128.214 35.3457C127.347 34.4342 126.622 32.0986 126.627 30.9202C127.083 32.727 128.22 34.8893 128.8 35.1268C130.301 35.6542 131.901 35.8443 133.486 35.6834C135.586 35.4442 137.441 34.4479 137.72 32.172C138.039 29.58 136.192 28.1651 134.027 27.2308C133.433 26.9779 132.831 26.7414 132.244 26.4798C130.141 25.5516 127.925 23.7093 128.442 21.1627C129.128 17.7731 133.572 17.4113 136.358 17.9336L138.838 16.7676L136.81 18.2849L136.799 18.2915Z" fill="#FEF8C2"/>
<path d="M146.525 18.024H149.432C151.752 18.024 153.5 18.4833 154.674 19.4023C155.874 20.3367 156.471 21.7288 156.471 23.5671C156.471 25.4942 155.962 26.9003 154.815 27.8344C153.669 28.769 151.934 29.1915 149.429 29.1915H146.863L146.931 34.9898L150.439 37.4859L146.686 35.4691C145.615 36.3352 143.771 36.8598 142.436 36.808C143.745 36.3682 145.324 35.9017 146.393 35.0166L146.201 18.4794L142.436 16.4561L146.523 18.0279L146.525 18.024ZM146.741 18.5603L146.859 28.6526H149.432C151.807 28.6526 153.445 28.2533 154.477 27.4161C155.489 26.594 155.931 25.3236 155.931 23.5632C155.931 21.8968 155.401 20.6489 154.34 19.8196C153.265 18.9766 151.628 18.5551 149.432 18.5551L146.741 18.5603Z" fill="url(#paint37_linear_54_6)"/>
<path d="M164.452 18.4314L168.486 16.4541L164.703 18.9055V34.9321L168.486 37.481L164.465 35.4126C163.556 36.0915 161.751 36.8869 160.452 36.8034C161.5 36.4139 162.753 36.2863 164.163 34.9611V18.8879C163.208 18.1293 161.653 17.3252 160.452 17.1366C161.869 16.9092 163.363 17.578 164.452 18.4318V18.4314Z" fill="url(#paint38_linear_54_6)"/>
<path fill-rule="evenodd" clip-rule="evenodd" d="M146.24 21.6729L146.325 28.995C145.843 26.8542 145.026 24.916 144.023 26.1133V21.9674C144.277 22.6437 145.341 23.3266 146.241 21.6729H146.24ZM164.087 24.9669L164.164 32.2878C163.72 30.147 162.964 28.2088 162.037 29.4061V25.2612C162.27 25.9378 163.254 26.621 164.087 24.9669Z" fill="#FEF8C2"/>
<path fill-rule="evenodd" clip-rule="evenodd" d="M99.2611 39.1205H89.5627V36.9432L90.0109 36.6033C90.0707 36.2871 89.9396 35.618 89.8072 35.1009L84.0925 35.0781C83.9535 35.6259 83.8122 36.3566 83.8888 36.675L84.2706 37.0254V39.1205H59.5702V36.8953L60.0161 36.5932C60.3589 36.3795 60.616 36.054 60.7433 35.6725C61.0207 34.9257 61.16 34.1354 61.1548 33.3396V29.2341C59.5666 28.9167 57.5479 28.7918 56.1674 29.6602L55.5114 30.0726L54.058 28.7663L54.3485 28.0659C54.9074 26.7178 55.6018 25.4585 56.8499 24.6266C58.1236 23.7758 59.6517 23.596 61.1548 23.7011V21.8474C61.1548 21.0634 60.951 19.2048 60.2172 18.7295L59.5702 18.3109V16.0664H71.5308C72.4007 16.0664 73.4808 16.0664 74.325 15.8693L75.907 15.5128L76.0164 16.6595L76.5859 22.6023L76.652 23.2939L74.4295 24.394L73.7927 23.1119C73.2324 21.9612 71.6212 21.7476 70.4737 21.7476H68.0284V25.0439L68.1352 25.0667C69.5489 25.374 71.099 25.5724 72.5495 25.4788C72.9317 25.455 74.0451 25.3297 74.3609 25.0843L74.9977 24.4169L76.1042 25.3019L76.698 25.7809L76.4012 26.4816C76.0049 27.4147 75.2205 28.4401 74.4907 29.1203C72.6961 30.7792 70.4595 31.3103 68.0728 30.7756L68.0347 30.7665V33.4296H69.7934C71.6504 33.4296 73.4197 32.8515 74.5252 31.295L75.232 30.3L77.3079 31.3306L77.2162 32.0437C77.0779 33.1242 76.9389 34.2054 76.7999 35.2869C77.3636 34.4001 77.8274 33.4545 78.183 32.4672L82.3745 20.483C82.5273 20.0469 82.6926 18.9784 82.2762 18.6297L81.7656 18.2072V16.067H92.3874V18.1772L92.0473 18.4793C91.4489 19.0104 91.5278 19.7806 91.7762 20.4693L94.8839 29.1092C95.1067 29.0414 95.3204 28.9472 95.5205 28.8286L95.8389 28.6361L97.2207 28.8475L97.896 31.2222L96.7942 34.0645C97.1662 34.8005 97.6857 35.7006 98.2424 36.2809C98.8089 35.6135 98.9923 34.0583 98.9923 33.3399V21.7071C98.9923 20.9271 98.7478 19.1999 98.0374 18.7233L97.408 18.3008V16.0667H106.789L106.917 17.3436C106.984 18.0225 107.577 18.9709 107.926 19.5513L111.843 26.0807V21.8474C111.843 21.1267 111.67 19.1683 110.994 18.7295L110.347 18.3109V16.0664H119.974V18.3109L119.337 18.7295C118.614 19.1986 118.4 21.0722 118.4 21.8474V33.3396C118.4 34.1147 118.614 35.9886 119.337 36.4578L119.984 36.8776V39.1205H111.4L111.145 38.4883C110.907 37.9103 110.636 37.3459 110.335 36.7977C110.061 36.292 109.762 35.8115 109.462 35.3273L105.672 29.224C105.631 29.1571 105.589 29.0903 105.545 29.0231V33.3373C105.545 34.0579 105.717 36.0164 106.393 36.4552L107.042 36.875V39.1205H99.2611ZM38.8995 24.7229C40.0941 19.0694 44.7338 15.6592 51.0574 15.6592C52.9411 15.6522 54.8159 15.9167 56.6231 16.4445L57.5554 16.7137L58.2051 23.6678L56.1213 24.6984L55.4296 23.626C54.4733 22.1456 52.7373 21.5437 51.0281 21.5437C47.4097 21.5437 45.8268 24.0727 45.8268 27.4294C45.8268 30.545 47.0279 33.6328 50.6473 33.6328C53.057 33.6328 54.6541 32.8247 56.1151 30.9306L56.9478 29.8507L58.7831 31.5641L57.9031 38.0772L57.0793 38.3653C54.9194 39.13 52.6461 39.5309 50.3531 39.5515C44.2908 39.5515 39.9005 35.8314 38.8434 30.3515C37.6603 35.987 33.088 39.7019 26.8029 39.7019C19.6959 39.7019 14.929 34.7923 14.929 27.7837C14.929 20.3728 19.753 15.4844 27.2422 15.4844C33.3988 15.4844 37.8375 19.1605 38.8995 24.7229ZM27.0956 33.8416C30.528 33.8416 31.9164 30.6503 31.9164 27.6675C31.9164 24.3725 30.7242 21.3456 26.9491 21.3456C23.4174 21.3456 22.1552 24.427 22.1552 27.493C22.1605 30.8135 23.2686 33.8416 27.0956 33.8416ZM87.9094 29.3898L86.9337 26.494L85.9686 29.3884L87.9094 29.3898Z" fill="#06223B"/>
<path fill-rule="evenodd" clip-rule="evenodd" d="M112.666 29.8734C112.571 28.743 112.539 27.6089 112.539 26.4596V21.2211C112.539 20.0907 112.304 17.9525 111.228 17.256L111.043 17.1356V16.4531H118.637V17.1359L118.451 17.256C117.348 17.9705 117.05 20.0476 117.05 21.2211V32.7133C117.05 33.8868 117.345 35.964 118.451 36.6797L118.637 36.7985V37.4813H111.759L111.655 37.2285C111.249 36.2905 110.769 35.3861 110.218 34.5239L106.081 27.8631C105.303 26.6224 104.622 25.3243 104.044 23.9802C104.149 25.2241 104.193 26.4661 104.193 27.7734V32.7182C104.193 33.8499 104.428 35.9868 105.506 36.685L105.69 36.8037V37.4865H98.0973V36.8086L98.2754 36.6886C99.367 35.9526 99.6763 33.907 99.6763 32.7182V21.0857C99.6763 19.8973 99.325 17.9679 98.2754 17.2622L98.0959 17.1421V16.4632H105.534L105.571 16.8286C105.66 17.7137 106.273 18.711 106.717 19.4536L110.942 26.4948C111.586 27.5879 112.161 28.7196 112.664 29.8835L112.666 29.8734Z" fill="url(#paint39_linear_54_6)"/>
<path fill-rule="evenodd" clip-rule="evenodd" d="M112.66 29.8734L114.752 34.9892V37.4826L102.811 18.4305L102.159 16.4531H105.535L105.572 16.8185C105.661 17.7036 106.274 18.7009 106.718 19.4435L110.943 26.4847C111.585 27.5781 112.158 28.7099 112.66 29.8734Z" fill="url(#paint40_linear_54_6)"/>
<path fill-rule="evenodd" clip-rule="evenodd" d="M114.794 37.4807H111.759C111.329 36.454 110.814 35.4651 110.217 34.5246L106.081 27.8637C105.311 26.6266 104.63 25.337 104.043 24.0046L101.75 16.4521L102.811 18.4298L114.794 37.4807Z" fill="url(#paint41_linear_54_6)"/>
<path fill-rule="evenodd" clip-rule="evenodd" d="M113.316 37.4807H111.757C111.295 36.3578 109.443 33.279 108.804 32.251C111.569 34.7458 110.996 32.5192 109.98 30.6414L108.918 28.6807L113.92 36.0922C113.738 36.5638 113.537 37.0279 113.316 37.4833V37.4807Z" fill="url(#paint42_linear_54_6)"/>
<path fill-rule="evenodd" clip-rule="evenodd" d="M112.667 29.8734C112.571 28.743 112.539 27.6089 112.539 26.4596V21.2211C112.539 20.0907 112.305 17.9525 111.229 17.256L111.044 17.1356V16.4531H114.969L114.793 37.4813L114.753 34.9892L112.663 29.8737L112.667 29.8734Z" fill="url(#paint43_linear_54_6)"/>
<path fill-rule="evenodd" clip-rule="evenodd" d="M104.046 23.9811C104.151 25.2251 104.194 26.4671 104.194 27.7743V32.7195C104.194 33.8509 104.43 35.9878 105.508 36.6859L105.692 36.8047V37.4875H101.744L101.913 16.459H102.366L104.046 23.9811Z" fill="url(#paint44_linear_54_6)"/>
<path fill-rule="evenodd" clip-rule="evenodd" d="M114.752 16.4521H118.627V17.135L118.441 17.2554C117.338 17.9698 117.04 20.047 117.04 21.2205V32.7127C117.04 33.8861 117.335 35.9633 118.441 36.6791L118.627 36.7979V37.4807H114.752V16.4521Z" fill="url(#paint45_linear_54_6)"/>
<path fill-rule="evenodd" clip-rule="evenodd" d="M117.046 32.8447C117.067 34.0371 117.382 35.9907 118.447 36.6797L118.633 36.7984V37.4812H117.473C116.568 37.2593 115.675 36.9893 114.799 36.6722C114.799 36.6722 114.754 31.3616 115.024 28.1348C115.024 28.1348 115.152 33.3605 117.044 32.8447H117.046Z" fill="url(#paint46_linear_54_6)"/>
<path fill-rule="evenodd" clip-rule="evenodd" d="M101.919 37.3551L98.0985 37.4813V36.8037L98.2766 36.6837C99.3683 35.9477 99.6775 33.9018 99.6775 32.7133V21.0808C99.6775 19.8923 99.3262 17.9626 98.2766 17.2573L98.0972 17.1372V16.458H101.918V37.3551H101.919Z" fill="url(#paint47_linear_54_6)"/>
<path fill-rule="evenodd" clip-rule="evenodd" d="M101.649 20.8516V28.1346C101.229 25.9941 100.555 24.0947 99.6812 25.292V21.1462C99.9003 21.8215 100.869 22.5066 101.649 20.8516Z" fill="#FEF8C2"/>
<path fill-rule="evenodd" clip-rule="evenodd" d="M26.4747 38.0588C19.9182 38.0588 15.6208 33.5902 15.6208 27.1532C15.6208 20.3064 19.9855 15.8672 26.9141 15.8672C33.4401 15.8672 37.7959 20.2926 37.7959 26.7408C37.7959 33.4425 33.2491 38.0535 26.4747 38.0535V38.0588ZM26.7675 34.2238C30.7806 34.2238 32.6083 30.6267 32.6083 27.0367C32.6083 23.1283 30.9731 19.7035 26.6223 19.7035C22.506 19.7035 20.8097 23.1906 20.8097 26.8638C20.8084 30.796 22.3542 34.2277 26.7675 34.2277V34.2238Z" fill="url(#paint48_linear_54_6)"/>
<path fill-rule="evenodd" clip-rule="evenodd" d="M15.9996 23.8454C16.1719 23.1293 16.4137 22.4315 16.7216 21.7617C17.1959 21.8327 17.6469 22.0128 18.0386 22.2877C18.4302 22.5626 18.7517 22.9247 18.9772 23.345C19.8917 25.7145 17.9417 26.4286 17.9759 25.55C18.0104 24.6711 17.4882 22.7835 15.9983 23.8454H15.9996Z" fill="#FFF0BD"/>
<path fill-rule="evenodd" clip-rule="evenodd" d="M26.4751 38.0583C23.0999 38.0583 20.3247 36.875 18.4243 34.8481C20.4903 35.4021 20.8748 34.3627 20.5018 34.0188C20.5018 34.0188 23.2832 33.7898 23.9671 33.6218C24.7314 34.0074 25.6611 34.2237 26.7692 34.2237C30.7823 34.2237 32.61 30.6262 32.61 27.0366C32.61 26.7838 34.63 22.5899 34.6159 22.3407C35.8104 22.8463 35.9557 20.975 35.0694 19.1631C36.8091 21.0599 37.7972 23.6695 37.7972 26.7495C37.7972 33.4508 33.2505 38.0622 26.4764 38.0622L26.4751 38.0583Z" fill="url(#paint49_linear_54_6)"/>
<path fill-rule="evenodd" clip-rule="evenodd" d="M17.1539 20.9325C17.8053 19.7978 18.6844 18.808 19.7368 18.0244C19.7161 18.0799 19.1368 19.7176 22.0519 18.8084C22.0519 18.8084 19.608 21.4369 18.6386 22.8746C18.9264 22.2235 18.5272 20.2119 17.1539 20.9325Z" fill="#FEF8C2"/>
<path fill-rule="evenodd" clip-rule="evenodd" d="M26.5293 35.9881C21.5192 35.9881 18.2344 32.3554 18.2344 27.1221C18.2344 21.5588 21.5715 17.9463 26.8658 17.9463C31.8532 17.9463 35.1824 21.5408 35.1824 26.7907C35.1824 32.2402 31.7076 35.9881 26.5293 35.9881ZM26.7676 34.228C30.7809 34.228 32.6084 30.6309 32.6084 27.0409C32.6084 23.1325 30.9732 19.7077 26.6223 19.7077C22.5061 19.7077 20.8097 23.1949 20.8097 26.868C20.8097 30.7976 22.3559 34.2293 26.7689 34.2293L26.7676 34.228Z" fill="url(#paint50_linear_54_6)"/>
<path fill-rule="evenodd" clip-rule="evenodd" d="M26.5293 35.9877C24.5336 35.9877 22.9392 35.4504 21.6477 34.2984C29.9262 37.2936 36.5948 30.2132 33.8923 22.1045C34.7457 23.5067 35.1824 24.8156 35.1824 26.7903C35.1824 32.2398 31.7076 35.9877 26.5293 35.9877Z" fill="#F8E98B"/>
<path fill-rule="evenodd" clip-rule="evenodd" d="M18.804 30.6476C18.4166 29.512 18.2241 28.3198 18.2345 27.1209C18.2345 25.3396 18.5773 23.758 19.2155 22.4315C20.452 19.9697 22.5128 18.6572 24.6994 18.1666C25.4113 18.0168 26.1373 17.9427 26.865 17.9454C27.1745 17.9454 27.4779 17.9594 27.7739 17.9871C30.0282 18.2057 32.0295 19.1681 33.4327 21.043C33.552 21.2721 33.6411 21.5151 33.6976 21.7663C32.1209 19.9191 28.7305 19.3032 26.6202 19.7055C22.5039 19.7055 20.8073 23.193 20.8073 26.8658C20.1592 29.1012 20.2585 31.9992 21.1385 33.8859C20.1384 32.9822 19.3423 31.8786 18.8027 30.6476H18.804Z" fill="url(#paint51_linear_54_6)"/>
<path fill-rule="evenodd" clip-rule="evenodd" d="M34.0344 31.2675C33.4968 32.5725 32.5836 33.7962 31.3421 34.4285C31.5139 34.1075 31.929 32.8531 30.0684 33.164C31.1153 32.3588 31.8258 31.1651 32.2244 29.8174C32.3023 30.8033 32.9861 32.0045 34.0344 31.2675Z" fill="#FFF0BD"/>
<path d="M26.5279 36.3415C23.9351 36.3415 21.7836 35.4036 20.2733 33.7887C18.7627 32.1741 17.8853 29.849 17.8853 27.1229C17.8853 24.2364 18.7577 21.8515 20.3229 20.1877C21.8881 18.5239 24.126 17.5918 26.868 17.5918C29.4558 17.5918 31.6171 18.5262 33.138 20.142C34.6588 21.7579 35.531 24.0618 35.531 26.7876C35.531 29.6161 34.623 32.0048 33.0401 33.6889C31.4568 35.3732 29.2127 36.3441 26.5279 36.3441V36.3415ZM20.6693 33.4246C22.0777 34.9305 24.0954 35.8055 26.5279 35.8055C29.0572 35.8055 31.1679 34.8963 32.6411 33.3248C34.115 31.7533 34.9861 29.4771 34.9861 26.7879C34.9861 24.2021 34.1682 22.0274 32.7381 20.5061C31.3079 18.9852 29.2994 18.1278 26.8631 18.1278C24.2762 18.1278 22.1684 19.0028 20.7114 20.5518C19.2543 22.1004 18.4189 24.3753 18.4189 27.1265C18.4189 29.7136 19.2313 31.8998 20.6601 33.4285L20.6693 33.4246Z" fill="#FEF8C2"/>
<path fill-rule="evenodd" clip-rule="evenodd" d="M88.6986 16.4521H82.4578V17.1046L82.6031 17.2312C83.4078 17.9026 83.3175 19.31 83.0092 20.1912L78.8128 32.178C78.3146 33.6026 77.2397 35.6991 76.082 36.7196L75.9446 36.8461L75.8694 37.4908H82.9215V36.851L82.794 36.731C82.4118 36.3832 82.4972 35.4779 82.6668 34.6701C82.7572 34.2564 82.8689 33.848 83.0017 33.446L85.6493 25.5145L86.5997 22.6697L88.6959 16.4626L88.6986 16.4521Z" fill="url(#paint52_linear_54_6)"/>
<path fill-rule="evenodd" clip-rule="evenodd" d="M83.9816 30.5045L85.3102 26.5293C83.9217 28.412 83.0112 27.9608 83.2635 26.7241C82.2166 28.0747 81.3352 31.6819 81.3352 31.6819L83.9816 30.5045Z" fill="url(#paint53_linear_54_6)"/>
<path fill-rule="evenodd" clip-rule="evenodd" d="M95.3529 33.4839L96.2152 31.2599L95.4893 29.1974C94.9876 29.4341 94.4517 29.5915 93.9011 29.6639L90.4891 20.1811C90.1542 19.2516 90.0928 17.9365 90.9054 17.2162L91.0405 17.0958V16.4512H86.6045V22.6465L90.2584 33.4206L90.2482 33.465L90.2801 33.5599C90.4802 34.1338 91.0635 36.1937 90.4178 36.683L90.2571 36.8093V37.4732H97.7042L97.5537 36.6967C96.7311 36.0266 95.926 34.6838 95.3555 33.4764L95.3529 33.4839Z" fill="url(#paint54_linear_54_6)"/>
<path fill-rule="evenodd" clip-rule="evenodd" d="M95.3533 33.4839L96.4894 30.5503L96.0845 29.1266L95.7201 29.0712C95.1587 29.3849 94.5409 29.5864 93.9015 29.6643L90.4895 20.1811C90.1546 19.2516 90.0935 17.9365 90.9058 17.2162L91.0409 17.0958V16.4512H86.8113L87.0965 17.8419L94.2045 37.4758H97.702L97.5518 36.6993C96.7289 36.0292 95.9238 34.6864 95.3533 33.479V33.4839Z" fill="url(#paint55_linear_54_6)"/>
<path fill-rule="evenodd" clip-rule="evenodd" d="M86.5779 16.4521H82.459V17.1046L82.6043 17.2312C83.4091 17.9026 83.3187 19.31 83.0105 20.1912L78.814 32.178C78.3158 33.6026 77.2409 35.6991 76.0832 36.7196L75.9459 36.8461L75.8706 37.4908H79.1821L86.1001 17.885L86.5753 16.4626L86.5779 16.4521Z" fill="url(#paint56_linear_54_6)"/>
<path fill-rule="evenodd" clip-rule="evenodd" d="M78.1887 33.6596C77.632 34.8089 76.8768 36.0154 76.0832 36.7145L75.9459 36.8411L75.8706 37.4857H79.1821L80.187 34.6448C80.5688 33.1513 80.8948 31.8225 80.8948 31.8225C80.8948 31.8225 78.9195 34.9329 78.1887 33.6635V33.6596ZM84.7899 20.7854C84.6256 22.0992 83.9634 23.8834 83.2996 25.0103C83.231 23.9859 82.1534 24.2348 81.1078 25.622L82.9483 20.3633C82.9368 21.0738 83.8054 21.9782 84.7899 20.7854Z" fill="#FEF8C2"/>
<path fill-rule="evenodd" clip-rule="evenodd" d="M82.4585 16.4521C83.5932 16.8166 84.5866 16.9187 86.1022 17.8746L87.0956 17.8472C88.4597 16.9441 90.2414 16.6698 91.0081 16.4561L82.4585 16.4521Z" fill="#F5E885"/>
<path fill-rule="evenodd" clip-rule="evenodd" d="M82.9227 37.4808L80.0736 34.9521C79.3907 35.7788 77.7352 36.5276 75.9459 36.8362L75.8706 37.4808H82.9227Z" fill="url(#paint57_linear_54_6)"/>
<path fill-rule="evenodd" clip-rule="evenodd" d="M90.2539 37.481L93.3554 35.0508C94.0379 35.8775 95.7674 36.3972 97.5581 36.7045L97.7086 37.481H90.2539Z" fill="url(#paint58_linear_54_6)"/>
<path fill-rule="evenodd" clip-rule="evenodd" d="M96.0843 31.5964L96.4894 30.5505L96.0843 29.1267L95.7201 29.0713C95.1504 29.3658 94.536 29.566 93.9013 29.6641L92.1363 31.5961L88.9993 29.7756H84.2271L81.2571 31.5961L96.0843 31.5964Z" fill="url(#paint59_linear_54_6)"/>
<path fill-rule="evenodd" clip-rule="evenodd" d="M92.0576 31.5524L89.0008 29.7822H87.666C88.7334 30.0351 89.4938 30.7936 88.1757 31.3351L92.0576 31.5524Z" fill="#FEF8C2"/>
<path fill-rule="evenodd" clip-rule="evenodd" d="M96.0842 31.596L95.3533 33.4837L92.1362 31.596L90.2283 33.4634L83.0043 33.4357L81.2544 31.5957L96.0842 31.596Z" fill="url(#paint60_linear_54_6)"/>
<path fill-rule="evenodd" clip-rule="evenodd" d="M96.0844 31.5967L95.3533 33.4843L92.1821 31.6231V31.5967H96.0844Z" fill="url(#paint61_linear_54_6)"/>
<path fill-rule="evenodd" clip-rule="evenodd" d="M95.7193 29.0713L95.3525 33.484L96.4886 30.5505L96.0837 29.1267L95.7193 29.0713Z" fill="#734301"/>
<path fill-rule="evenodd" clip-rule="evenodd" d="M105.692 37.4806L101.919 35.0781C101.235 35.9038 99.5275 36.6676 98.0986 36.8079V37.4858L105.692 37.4806Z" fill="url(#paint62_linear_54_6)"/>
<path fill-rule="evenodd" clip-rule="evenodd" d="M111.758 37.4811L114.752 34.9736C115.436 35.7993 116.837 36.491 118.627 36.7983V37.4811H111.758Z" fill="url(#paint63_linear_54_6)"/>
<path fill-rule="evenodd" clip-rule="evenodd" d="M105.535 16.4521L101.919 19.0774C101.235 18.2517 99.8814 17.4335 98.0986 17.1314V16.4521H105.535ZM111.038 16.4521L114.757 18.9179C115.441 18.0925 116.601 17.4857 118.631 17.135V16.4525L111.038 16.4521Z" fill="#F5E885"/>
<path d="M86.0092 17.4987C86.1866 17.5976 86.3868 17.6488 86.5898 17.6478C86.7919 17.6384 86.9882 17.5783 87.1606 17.4733C88.2852 16.8247 89.9141 16.5631 91.0413 16.4531C90.0798 16.7565 88.4672 17.2231 87.418 17.945L92.2844 31.3287H95.08L95.7168 29.0705L95.499 31.7033C95.4779 31.7506 95.4435 31.7908 95.3999 31.8191C95.3562 31.8474 95.3053 31.8624 95.2532 31.8625H92.478L93.6038 34.9614C93.6229 35.0141 93.6247 35.0713 93.6091 35.1251C93.5936 35.1788 93.5614 35.2264 93.5171 35.2609L90.2556 37.4813L93.032 34.9614L91.9062 31.8638H81.4523L80.329 35.0463C80.313 35.0923 80.2843 35.133 80.2462 35.1637C79.7826 35.5898 77.1221 36.8657 75.9463 36.8416C76.9795 36.4419 78.3662 36.1134 79.8424 34.8071L85.7801 17.9907C84.9201 17.4557 83.5232 16.764 82.4598 16.4593C83.8518 16.4593 85.2146 17.0661 86.0092 17.5049V17.4984V17.4987ZM86.2195 18.3522L81.6343 31.3248H91.7061L86.9937 18.3496C86.8232 17.8781 86.3861 17.8742 86.2182 18.3496L86.2195 18.3522Z" fill="url(#paint64_linear_54_6)"/>
<path d="M101.992 18.6934C102.842 18.0765 104.561 16.7843 105.535 16.4531L103.563 18.16C103.454 18.2546 103.382 18.3848 103.361 18.5273C103.339 18.6698 103.37 18.8152 103.446 18.9375L113.606 35.151C113.637 35.2023 113.68 35.2458 113.73 35.2782C113.781 35.3107 113.839 35.3312 113.899 35.3382C114.267 35.3875 114.491 34.9588 114.491 34.6404V19.0614L111.042 16.4782L114.736 18.5848C115.198 18.2129 116.706 17.2169 118.629 17.1356C116.82 17.624 116.198 17.8945 115.025 19.0324V34.4329C115.023 34.5833 115.055 34.7322 115.12 34.868C115.185 35.0039 115.281 35.1233 115.399 35.2169C116.517 36.1235 117.614 36.3434 118.63 36.8239C117.646 36.8455 116.263 36.2638 115.374 35.7529C115.164 35.63 114.922 35.5728 114.68 35.5885C114.437 35.6043 114.205 35.6924 114.013 35.8413C113.282 36.4015 112.591 36.9365 111.758 37.5055C112.206 37.0099 112.764 36.361 113.368 35.7858L102.969 19.1867C102.741 18.8239 102.188 19.0236 102.188 19.4193V35.074C102.188 35.141 102.162 35.2056 102.116 35.2547C101.693 35.7744 99.6482 36.8416 98.0972 36.8037C99.3807 36.408 100.582 36.1398 101.649 34.9777V19.5446C101.651 19.3894 101.622 19.2353 101.564 19.0912C101.506 18.9471 101.42 18.8158 101.31 18.7048C100.448 17.8083 98.9148 17.4214 98.0995 17.1562C99.8484 17.2433 101.198 17.9411 101.992 18.6934Z" fill="url(#paint65_linear_54_6)"/>
<path fill-rule="evenodd" clip-rule="evenodd" d="M50.0256 37.9167C43.5936 37.9167 39.29 33.4192 39.29 27.0986C39.29 20.2354 43.912 16.0452 50.7298 16.0452C52.5165 16.0354 54.2953 16.2856 56.0091 16.7884L56.2752 16.8657L56.7974 22.4493L56.1605 22.7641L55.9617 22.4581C54.8155 20.6801 52.7676 19.9092 50.7019 19.9092C46.5206 19.9092 44.4802 22.8679 44.4802 26.8076C44.4802 30.5401 46.1207 34.0237 50.321 34.0237C53.0683 34.0237 54.9555 33.0538 56.5999 30.9244L56.7465 30.7352L57.3768 31.3227L56.6495 36.7054L56.4139 36.7889C54.3624 37.5131 52.2041 37.8942 50.0269 37.9167H50.0256Z" fill="url(#paint66_linear_54_6)"/>
<path fill-rule="evenodd" clip-rule="evenodd" d="M39.6265 24.0241C39.7986 23.3075 40.0409 22.6093 40.3498 21.9395C40.8242 22.0104 41.2753 22.1904 41.6671 22.4652C42.059 22.74 42.3807 23.1019 42.6067 23.522C43.5212 25.8915 41.5712 26.606 41.6044 25.7274C41.6376 24.8485 41.1177 22.9616 39.6265 24.0241Z" fill="#FFF0BD"/>
<path fill-rule="evenodd" clip-rule="evenodd" d="M50.0253 37.917C44.2942 37.917 40.2492 34.3414 39.4392 29.085C40.0961 31.2091 41.7162 33.3121 42.6383 32.1311L45.9498 31.9931C46.8886 33.2299 48.3099 34.0239 50.3144 34.0239C53.0617 34.0239 54.9492 33.054 56.5933 30.9246L56.7399 30.7354L57.3524 31.4571L56.6429 36.7056L56.4073 36.7891C54.3559 37.5134 52.1975 37.8945 50.0203 37.917H50.0253Z" fill="url(#paint67_linear_54_6)"/>
<path fill-rule="evenodd" clip-rule="evenodd" d="M56.5175 19.4612L56.8028 22.4489L56.1662 22.7638L55.9674 22.4578C54.8212 20.6801 52.7733 19.9088 50.7072 19.9088C46.5263 19.9088 44.4859 22.8678 44.4859 26.8075C44.4859 30.5397 46.1263 34.0233 50.3267 34.0233C53.0736 34.0233 54.9612 33.0537 56.6056 30.9244L56.7518 30.7348L57.3824 31.3227L57.017 34.0312C55.0085 35.2513 52.9708 36.0969 50.1226 36.0969C45.1277 36.0969 41.7856 32.3481 41.7856 27.078C41.7856 21.358 45.3748 17.8656 50.6704 17.8656C52.7746 17.833 54.6188 18.4016 56.529 19.4612H56.5175Z" fill="url(#paint68_linear_54_6)"/>
<path fill-rule="evenodd" clip-rule="evenodd" d="M49.4557 33.971C49.7423 34.0066 50.0305 34.0242 50.3193 34.0242C53.0666 34.0242 54.9538 33.0543 56.5982 30.9249L56.7448 30.7354L57.3751 31.3232L57.0096 34.0317C55.0011 35.2518 52.9634 36.0978 50.1156 36.0978C47.441 36.0978 45.2452 35.0241 43.7766 33.22C43.7207 33.0468 43.6711 32.8709 43.6313 32.6928C43.6313 32.6928 46.2399 34.4855 49.4557 33.971Z" fill="url(#paint69_linear_54_6)"/>
<path fill-rule="evenodd" clip-rule="evenodd" d="M51.801 33.9165C53.7776 33.6118 55.2676 32.6523 56.5985 30.9249L56.745 30.7354L57.3757 31.3232L57.0099 34.0317C55.0014 35.2518 52.9637 36.0978 50.1159 36.0978L49.5569 35.8156C52.1257 35.4264 52.8795 34.139 51.801 33.9165Z" fill="#F8E98B"/>
<path fill-rule="evenodd" clip-rule="evenodd" d="M56.2742 16.8652L53.8467 18.3066C54.6797 18.9845 55.8476 20.9883 56.1585 22.7637L56.7954 22.4489L56.2732 16.8652H56.2742Z" fill="url(#paint70_linear_54_6)"/>
<path fill-rule="evenodd" clip-rule="evenodd" d="M56.7079 30.7823C56.2662 32.3022 55.6531 33.7677 54.8801 35.151L56.6287 36.7202L56.6478 36.7124L57.375 31.3301L56.7447 30.7422L56.7079 30.7888V30.7823Z" fill="url(#paint71_linear_54_6)"/>
<path d="M55.0755 35.3182C53.2924 36.0705 51.6572 36.4245 49.7187 36.3576C47.2988 36.2741 45.2739 35.3309 43.827 33.7745C42.2986 32.1308 41.4172 29.7976 41.4172 27.0731C41.4172 24.1712 42.3291 21.8206 43.9174 20.1845C45.5056 18.5485 47.751 17.7266 50.023 17.5988C51.6112 17.5104 52.5997 17.7077 54.091 18.1576C54.7278 18.7736 56.0587 20.9003 56.1593 22.7589C55.5711 21.0912 54.9812 19.7774 53.7242 18.5485C52.5347 18.2018 51.2938 18.062 50.0562 18.1351C47.9166 18.2614 45.8036 19.0111 44.3058 20.5565C42.8079 22.1015 41.9572 24.3154 41.9572 27.0731C41.9572 29.655 42.7826 31.8591 44.223 33.4078C45.5755 34.8618 47.4786 35.7417 49.7532 35.8177C51.2813 35.8683 53.3792 35.4383 54.7827 34.8491C55.4754 33.8769 56.3236 31.9348 56.7084 30.7766C56.6177 31.8372 55.7252 34.3509 55.0755 35.3133V35.3182Z" fill="url(#paint72_linear_54_6)"/>
<path d="M54.6401 35.3682L56.6283 36.7137L55.114 35.042L54.6401 35.3682Z" fill="#B97D1C"/>
<path d="M53.7686 18.135L56.2749 16.8652L54.2424 18.4609L53.7686 18.135Z" fill="#FEF8C2"/>
<path fill-rule="evenodd" clip-rule="evenodd" d="M40.7805 21.1161C41.4409 19.9848 42.3277 18.9998 43.3861 18.2217C43.1111 18.7972 43.1075 19.739 45.6444 18.8539C45.6444 18.8539 43.2359 21.6218 42.2669 23.0608C42.5534 22.4096 42.1535 20.3967 40.7805 21.1174V21.1161Z" fill="#FEF8C2"/>
<path fill-rule="evenodd" clip-rule="evenodd" d="M66.6803 20.1127H68.2008V18H63.8135V36.2176H68.2008V33.8201H66.6803V20.1127Z" fill="url(#paint73_linear_54_6)"/>
<path fill-rule="evenodd" clip-rule="evenodd" d="M66.6799 20.1132H70.1455C71.7337 20.1132 73.6186 20.4838 74.3866 22.0403L74.5673 22.4057L75.2436 22.0707L74.8756 18.2295H64.2649L66.6799 20.1132Z" fill="url(#paint74_linear_54_6)"/>
<path fill-rule="evenodd" clip-rule="evenodd" d="M61.2609 35.6562C61.0839 36.0666 60.8004 36.423 60.4393 36.6891L60.2612 36.8095V37.4871H75.0759L75.3115 35.6562H61.2609Z" fill="url(#paint75_linear_54_6)"/>
<path fill-rule="evenodd" clip-rule="evenodd" d="M66.6799 33.8204L64.26 35.6549L75.315 35.6271L75.8727 31.2875L75.2361 30.9727L75.0334 31.2575C73.7343 33.0844 71.67 33.8204 69.4689 33.8204H66.6799Z" fill="url(#paint76_linear_54_6)"/>
<path fill-rule="evenodd" clip-rule="evenodd" d="M61.5067 16.4521H60.2612V17.135L60.4459 17.2554C61.5589 17.976 61.8468 20.0369 61.8468 21.2205V32.7127C61.8468 33.8976 61.5323 35.947 60.4459 36.683L60.2675 36.8031V37.4807H60.344L63.1931 36.2354C63.5619 36.069 63.9555 35.9633 64.3584 35.9229L64.2694 35.5209V18.2289L61.5106 16.4587L61.5067 16.4521Z" fill="url(#paint77_linear_54_6)"/>
<path fill-rule="evenodd" clip-rule="evenodd" d="M74.8784 18.2521L74.6747 16.1279L74.2225 16.23C73.3411 16.4287 72.1187 16.4529 71.2015 16.4529H60.2612L64.2654 18.223L74.8784 18.2459V18.2521Z" fill="#F5E885"/>
<path fill-rule="evenodd" clip-rule="evenodd" d="M74.6745 16.1279L72.4343 18.2292C73.2661 18.9082 74.2568 20.6317 74.5677 22.4019L75.244 22.0668L74.6745 16.1279Z" fill="url(#paint78_linear_54_6)"/>
<path fill-rule="evenodd" clip-rule="evenodd" d="M73.4802 35.6562L75.0763 37.4909L75.8735 31.2953L75.2367 30.9805C75.0228 32.49 74.2407 34.3489 73.4792 35.6588L73.4802 35.6562Z" fill="url(#paint79_linear_54_6)"/>
<path d="M64.3179 17.9617H71.5901C72.1223 17.9688 72.6412 17.7968 73.0623 17.4737C73.6354 17.045 74.061 16.6062 74.6696 16.126L72.6154 18.4208C72.5656 18.4688 72.4989 18.4956 72.4294 18.4955H64.5331L64.5765 35.3879L71.8652 35.369C72.3157 35.3738 72.7585 35.2526 73.1427 35.0191C73.527 34.7857 73.8373 34.4495 74.038 34.049C74.5638 33.0762 74.9659 32.0424 75.2352 30.9713C75.4353 31.8133 74.154 35.03 73.7222 35.7634C73.6986 35.8044 73.6644 35.8385 73.6233 35.8623C73.5822 35.886 73.5355 35.8986 73.4879 35.8988L64.3077 35.9226C64.2364 35.9221 64.1681 35.8937 64.1178 35.8435C64.0675 35.7934 64.0391 35.7256 64.0389 35.6548L63.9942 18.4018L60.2588 16.4509L64.3179 17.9617Z" fill="url(#paint80_linear_54_6)"/>
<path fill-rule="evenodd" clip-rule="evenodd" d="M68.74 17.9626C67.4397 18.2598 65.7625 18.2347 64.471 18.0008C65.0822 17.8109 64.9002 16.9474 63.2305 16.4531H68.6142C67.9379 16.6906 67.2728 17.4495 68.74 17.9626Z" fill="#FEF8C2"/>
<path fill-rule="evenodd" clip-rule="evenodd" d="M54.9444 27.8665C55.9546 25.4132 57.3045 23.4965 61.845 24.2123L64.0165 26.1544L64.452 26.248L66.6796 25.2367L67.5889 25.4337C71.5461 26.2999 74.1711 25.7939 74.7607 25.1695L75.1313 25.4663C73.0032 28.8475 70.2649 29.682 66.6783 28.8804L64.5551 26.8219L64.0165 26.7044L61.8437 27.7967C59.9447 26.817 57.1836 26.7387 55.2895 28.1761L54.9431 27.8652L54.9444 27.8665Z" fill="url(#paint81_linear_54_6)"/>
<path fill-rule="evenodd" clip-rule="evenodd" d="M54.9443 27.866C55.6334 26.1908 56.4829 24.7667 58.3971 24.2598C58.3767 24.2728 57.335 24.9932 60.0836 25.446C60.0836 25.446 56.6153 25.4218 55.0337 27.9469L54.9443 27.866Z" fill="#FEF8C2"/>
<path fill-rule="evenodd" clip-rule="evenodd" d="M54.9443 27.866L54.9621 27.8245C56.1671 26.0834 58.2239 25.1689 62.4765 26.0935L67.2398 27.1303C70.9907 27.9459 73.7353 26.8217 75.1247 25.4639C75.1247 25.4639 73.0692 30.3102 67.9556 29.1634L66.672 28.875L64.5488 26.8165L64.0099 26.699L61.8371 27.7916L61.3875 27.6905C59.4645 27.2592 57.0343 27.0784 55.2907 28.1759L54.9443 27.865V27.866Z" fill="url(#paint82_linear_54_6)"/>
<path fill-rule="evenodd" clip-rule="evenodd" d="M54.9443 27.8664C56.6548 24.9579 59.5499 25.1821 62.539 25.8319L67.3023 26.8687C69.5336 27.3542 73.4234 27.1395 75.1325 25.4666C73.5953 27.7816 69.6318 27.9232 67.1876 27.392L62.4256 26.3552C59.6044 25.7419 57.0126 25.5638 55.1356 28.0383L54.9443 27.8664Z" fill="#FEF8C2"/>
<path fill-rule="evenodd" clip-rule="evenodd" d="M66.6796 29.9209C66.0989 28.4124 64.9935 29.4785 64.5692 31.9795L64.5564 26.8193L66.6796 28.8779V29.9209Z" fill="url(#paint83_linear_54_6)"/>
<path fill-rule="evenodd" clip-rule="evenodd" d="M116.267 13.4205L121.139 8.58398H115.425L110.579 13.4205H116.267Z" fill="url(#paint84_linear_54_6)"/>
<path fill-rule="evenodd" clip-rule="evenodd" d="M115.72 9.29297H119.413L115.971 12.712H112.278L115.72 9.29297Z" fill="url(#paint85_linear_54_6)"/>
<path fill-rule="evenodd" clip-rule="evenodd" d="M96.5669 7.88753L104.512 15.7734L112.455 7.88753L104.512 0L96.5669 7.88753Z" fill="url(#paint86_linear_54_6)"/>
<path fill-rule="evenodd" clip-rule="evenodd" d="M97.5774 7.8876L104.512 14.7713L111.446 7.8876L104.512 1.00293L97.5774 7.8876Z" fill="url(#paint87_linear_54_6)"/>
<path fill-rule="evenodd" clip-rule="evenodd" d="M98.9136 8.18211L104.213 13.4431C104.272 13.5014 104.347 13.5411 104.429 13.5573C104.51 13.5734 104.595 13.5652 104.672 13.5338C104.723 13.5126 104.769 13.4816 104.808 13.4431L110.108 8.18179C110.186 8.10314 110.23 7.99706 110.23 7.88654C110.23 7.77601 110.186 7.66993 110.108 7.59129L104.808 2.33032C104.729 2.25259 104.622 2.20898 104.511 2.20898C104.399 2.20898 104.292 2.25259 104.213 2.33032L98.9136 7.58607C98.8538 7.64472 98.8129 7.71978 98.7964 7.80163C98.7798 7.88347 98.7882 7.96837 98.8206 8.04542C98.8423 8.09664 98.8738 8.14362 98.9136 8.18211Z" fill="url(#paint88_linear_54_6)"/>
<path fill-rule="evenodd" clip-rule="evenodd" d="M100.518 7.74862L104.512 12.2018L109.959 7.88792L104.512 2.47754L100.518 7.74862Z" fill="#0C76A0"/>
<path fill-rule="evenodd" clip-rule="evenodd" d="M106.505 4.45685L104.511 2.47656L104.265 5.28876L106.346 6.44822C105.964 5.80226 105.2 4.13582 106.5 4.46076L106.505 4.45685Z" fill="url(#paint89_linear_54_6)"/>
<path fill-rule="evenodd" clip-rule="evenodd" d="M104.055 12.8443L104.512 13.2968L109.959 7.8877H104.055V12.8443Z" fill="url(#paint90_linear_54_6)"/>
<path fill-rule="evenodd" clip-rule="evenodd" d="M99.061 7.88792L104.511 12.8432V2.47754L99.061 7.88792Z" fill="url(#paint91_linear_54_6)"/>
<path fill-rule="evenodd" clip-rule="evenodd" d="M104.512 7.09255V2.47754L103.163 3.81252C103.572 4.46892 103.163 5.61337 102.39 6.52619L104.512 7.09255Z" fill="#29A2D0"/>
<path fill-rule="evenodd" clip-rule="evenodd" d="M99.061 7.8877L104.511 13.2968V7.8877H99.061Z" fill="url(#paint92_linear_54_6)"/>
<path fill-rule="evenodd" clip-rule="evenodd" d="M101.218 7.8871L104.511 11.1557L107.804 7.88678L104.511 4.61719L101.218 7.8871Z" fill="url(#paint93_linear_54_6)"/>
<path fill-rule="evenodd" clip-rule="evenodd" d="M101.125 7.98483L104.413 11.2534C104.439 11.2791 104.474 11.2935 104.511 11.2935C104.548 11.2935 104.584 11.2791 104.61 11.2534L107.902 7.98483C107.928 7.95872 107.942 7.92357 107.942 7.88696C107.942 7.85035 107.928 7.8152 107.902 7.78909L104.61 4.52015C104.584 4.4947 104.548 4.48047 104.511 4.48047C104.474 4.48047 104.439 4.4947 104.413 4.52015L101.125 7.78909C101.106 7.80844 101.093 7.83306 101.087 7.85987C101.082 7.88668 101.084 7.91449 101.095 7.93981C101.102 7.95666 101.112 7.97196 101.125 7.98483ZM104.517 10.9611L101.415 7.88631L104.512 4.81246L107.608 7.88631L104.517 10.9611Z" fill="url(#paint94_linear_54_6)"/>
<path fill-rule="evenodd" clip-rule="evenodd" d="M104.372 13.2965C104.374 13.3221 104.384 13.3465 104.4 13.367C104.415 13.3875 104.437 13.4033 104.461 13.4126C104.485 13.4219 104.511 13.4243 104.537 13.4197C104.562 13.415 104.586 13.4034 104.606 13.3862C104.631 13.3628 104.647 13.3309 104.651 13.2965V11.1064C104.647 11.072 104.631 11.0401 104.605 11.0168C104.58 10.9936 104.546 10.9806 104.511 10.9805C104.476 10.9804 104.443 10.9933 104.417 11.0166C104.391 11.0399 104.375 11.0719 104.372 11.1064V13.2965Z" fill="url(#paint95_linear_54_6)"/>
<path fill-rule="evenodd" clip-rule="evenodd" d="M99.0621 7.74805C99.0276 7.75158 98.9955 7.76764 98.9721 7.79316C98.9487 7.81868 98.9356 7.85186 98.9353 7.88637C98.9354 7.92098 98.9484 7.95433 98.9718 7.97995C98.9953 8.00556 99.0275 8.02163 99.0621 8.02503H101.268C101.303 8.02149 101.335 8.00538 101.358 7.97979C101.382 7.95421 101.395 7.92094 101.395 7.88637C101.395 7.85182 101.382 7.81856 101.358 7.79301C101.335 7.76746 101.303 7.75144 101.268 7.74805H99.0621Z" fill="#A9F2FA"/>
<path fill-rule="evenodd" clip-rule="evenodd" d="M104.651 2.47679C104.647 2.44265 104.631 2.41109 104.605 2.38816C104.579 2.36522 104.546 2.35254 104.511 2.35254C104.476 2.35254 104.443 2.36522 104.417 2.38816C104.392 2.41109 104.375 2.44265 104.372 2.47679V4.66652C104.374 4.69218 104.384 4.71661 104.4 4.73711C104.415 4.75761 104.437 4.77338 104.461 4.78267C104.485 4.79196 104.511 4.79441 104.537 4.78974C104.562 4.78508 104.586 4.77348 104.606 4.75624C104.631 4.73291 104.647 4.70094 104.651 4.66652V2.47679Z" fill="#4FE7F7"/>
<path fill-rule="evenodd" clip-rule="evenodd" d="M109.958 8.02503C109.984 8.02272 110.009 8.01325 110.03 7.99768C110.051 7.98212 110.067 7.96108 110.076 7.93694C110.085 7.9128 110.088 7.88654 110.083 7.86111C110.078 7.83569 110.066 7.81212 110.049 7.79307C110.025 7.76738 109.993 7.75132 109.958 7.74805H107.754C107.719 7.75176 107.687 7.76795 107.664 7.79351C107.641 7.81907 107.628 7.8522 107.628 7.88654C107.628 7.92088 107.641 7.95401 107.664 7.97957C107.687 8.00513 107.719 8.02132 107.754 8.02503H109.958Z" fill="#9BF0FA"/>
<path fill-rule="evenodd" clip-rule="evenodd" d="M92.7343 13.4205L87.8625 8.58398H93.5749L98.421 13.4205H92.7343Z" fill="url(#paint96_linear_54_6)"/>
<path fill-rule="evenodd" clip-rule="evenodd" d="M93.2801 9.29297H89.5864L93.0303 12.712H96.724L93.2801 9.29297Z" fill="url(#paint97_linear_54_6)"/>
<path fill-rule="evenodd" clip-rule="evenodd" d="M111.94 7.38574H117.652L110.862 14.1262L106.167 14.1301L104.518 15.7662L102.855 14.1301H97.9744L91.3594 7.38574H97.0714L104.504 14.766L111.94 7.38574Z" fill="url(#paint98_linear_54_6)"/>
<path fill-rule="evenodd" clip-rule="evenodd" d="M112.234 8.09277H115.928L110.564 13.4183H106.87L112.234 8.09277ZM96.7751 8.09277H93.0818L98.4208 13.4183H102.114L96.7751 8.09277Z" fill="url(#paint99_linear_54_6)"/>
</g>
<defs>
<linearGradient id="paint0_linear_54_6" x1="105.306" y1="41.4753" x2="103.456" y2="7.99723" gradientUnits="userSpaceOnUse">
<stop stop-color="#734301"/>
<stop offset="1" stop-color="#B97D1C"/>
</linearGradient>
<linearGradient id="paint1_linear_54_6" x1="105.049" y1="45.1538" x2="104.497" y2="26.8397" gradientUnits="userSpaceOnUse">
<stop stop-color="#734301"/>
<stop offset="1" stop-color="#B97D1C"/>
</linearGradient>
<linearGradient id="paint2_linear_54_6" x1="103.6" y1="41.296" x2="104.766" y2="22.2441" gradientUnits="userSpaceOnUse">
<stop stop-color="#734301"/>
<stop offset="1" stop-color="#B97D1C"/>
</linearGradient>
<linearGradient id="paint3_linear_54_6" x1="79.889" y1="58.6713" x2="174.308" y2="-10.2832" gradientUnits="userSpaceOnUse">
<stop stop-color="#F6EC98"/>
<stop offset="1" stop-color="#F2D224"/>
</linearGradient>
<linearGradient id="paint4_linear_54_6" x1="195.611" y1="34.1846" x2="204.272" y2="33.7947" gradientUnits="userSpaceOnUse">
<stop stop-color="#F6EC98"/>
<stop offset="1" stop-color="#F2D224"/>
</linearGradient>
<linearGradient id="paint5_linear_54_6" x1="5.82177" y1="17.7158" x2="23.8536" y2="16.4356" gradientUnits="userSpaceOnUse">
<stop stop-color="#F6EC98"/>
<stop offset="1" stop-color="#F2D224"/>
</linearGradient>
<linearGradient id="paint6_linear_54_6" x1="103.989" y1="9.92687" x2="104.475" y2="26.6172" gradientUnits="userSpaceOnUse">
<stop stop-color="#F6EC98"/>
<stop offset="0.46" stop-color="#F2D42D"/>
<stop offset="1" stop-color="#DDAE12"/>
</linearGradient>
<linearGradient id="paint7_linear_54_6" x1="158.08" y1="17.4408" x2="160.281" y2="37.3284" gradientUnits="userSpaceOnUse">
<stop stop-color="#F6EC98"/>
<stop offset="0.46" stop-color="#F2D42D"/>
<stop offset="1" stop-color="#DDAE12"/>
</linearGradient>
<linearGradient id="paint8_linear_54_6" x1="149.323" y1="18.6813" x2="150.266" y2="23.6949" gradientUnits="userSpaceOnUse">
<stop stop-color="#875309"/>
<stop offset="1" stop-color="#D4A624"/>
</linearGradient>
<linearGradient id="paint9_linear_54_6" x1="145.615" y1="20.5639" x2="148.864" y2="27.0982" gradientUnits="userSpaceOnUse">
<stop stop-color="#734301"/>
<stop offset="1" stop-color="#B97D1C"/>
</linearGradient>
<linearGradient id="paint10_linear_54_6" x1="141.785" y1="23.0949" x2="149.586" y2="37.4137" gradientUnits="userSpaceOnUse">
<stop stop-color="#734301"/>
<stop offset="1" stop-color="#B97D1C"/>
</linearGradient>
<linearGradient id="paint11_linear_54_6" x1="148.995" y1="29.7057" x2="150.043" y2="23.2877" gradientUnits="userSpaceOnUse">
<stop stop-color="#764602"/>
<stop offset="0.41" stop-color="#764602"/>
<stop offset="1" stop-color="#98660E"/>
</linearGradient>
<linearGradient id="paint12_linear_54_6" x1="142.485" y1="34.9569" x2="146.921" y2="16.5806" gradientUnits="userSpaceOnUse">
<stop stop-color="#F6EC98"/>
<stop offset="1" stop-color="#F2D224"/>
</linearGradient>
<linearGradient id="paint13_linear_54_6" x1="159.879" y1="22.5078" x2="166.41" y2="28.9685" gradientUnits="userSpaceOnUse">
<stop stop-color="#734301"/>
<stop offset="1" stop-color="#B97D1C"/>
</linearGradient>
<linearGradient id="paint14_linear_54_6" x1="166.189" y1="36.9327" x2="166.682" y2="31.5383" gradientUnits="userSpaceOnUse">
<stop stop-color="#764602"/>
<stop offset="1" stop-color="#98660E"/>
</linearGradient>
<linearGradient id="paint15_linear_54_6" x1="160.451" y1="34.9458" x2="164.937" y2="16.5969" gradientUnits="userSpaceOnUse">
<stop stop-color="#F6EC98"/>
<stop offset="1" stop-color="#F2D224"/>
</linearGradient>
<linearGradient id="paint16_linear_54_6" x1="182.191" y1="19.9579" x2="180.338" y2="36.3363" gradientUnits="userSpaceOnUse">
<stop stop-color="#EDD13B"/>
<stop offset="1" stop-color="#DAA70A"/>
</linearGradient>
<linearGradient id="paint17_linear_54_6" x1="175.977" y1="21.9457" x2="180.764" y2="25.3416" gradientUnits="userSpaceOnUse">
<stop stop-color="#734301"/>
<stop offset="1" stop-color="#B97D1C"/>
</linearGradient>
<linearGradient id="paint18_linear_54_6" x1="182.536" y1="20.0894" x2="179.673" y2="36.1673" gradientUnits="userSpaceOnUse">
<stop stop-color="#EDD13B"/>
<stop offset="1" stop-color="#DAA70A"/>
</linearGradient>
<linearGradient id="paint19_linear_54_6" x1="183.982" y1="30.9474" x2="184.775" y2="37.3898" gradientUnits="userSpaceOnUse">
<stop stop-color="#EDD13B"/>
<stop offset="1" stop-color="#F3D634"/>
</linearGradient>
<linearGradient id="paint20_linear_54_6" x1="181.841" y1="32.1734" x2="191.114" y2="20.2176" gradientUnits="userSpaceOnUse">
<stop stop-color="#F6EC98"/>
<stop offset="1" stop-color="#F2D224"/>
</linearGradient>
<linearGradient id="paint21_linear_54_6" x1="173.961" y1="26.7235" x2="176.106" y2="27.1992" gradientUnits="userSpaceOnUse">
<stop stop-color="#734301"/>
<stop offset="1" stop-color="#B97D1C"/>
</linearGradient>
<linearGradient id="paint22_linear_54_6" x1="186.221" y1="25.4345" x2="191.4" y2="27.7421" gradientUnits="userSpaceOnUse">
<stop stop-color="#734301"/>
<stop offset="1" stop-color="#B97D1C"/>
</linearGradient>
<linearGradient id="paint23_linear_54_6" x1="189.465" y1="36.9514" x2="189.946" y2="31.6911" gradientUnits="userSpaceOnUse">
<stop stop-color="#764602"/>
<stop offset="1" stop-color="#98660E"/>
</linearGradient>
<linearGradient id="paint24_linear_54_6" x1="170.964" y1="34.9047" x2="175.615" y2="16.6417" gradientUnits="userSpaceOnUse">
<stop stop-color="#F6EC98"/>
<stop offset="1" stop-color="#F2D224"/>
</linearGradient>
<linearGradient id="paint25_linear_54_6" x1="173.729" y1="36.1038" x2="176.415" y2="39.2674" gradientUnits="userSpaceOnUse">
<stop stop-color="#734301"/>
<stop offset="1" stop-color="#B97D1C"/>
</linearGradient>
<linearGradient id="paint26_linear_54_6" x1="189.467" y1="36.2192" x2="186.632" y2="39.1211" gradientUnits="userSpaceOnUse">
<stop stop-color="#734301"/>
<stop offset="1" stop-color="#B97D1C"/>
</linearGradient>
<linearGradient id="paint27_linear_54_6" x1="175.89" y1="19.5142" x2="188.084" y2="36.3037" gradientUnits="userSpaceOnUse">
<stop stop-color="#FEF8C2"/>
<stop offset="0.59" stop-color="#F4DC50"/>
<stop offset="1" stop-color="#B97D1C"/>
</linearGradient>
<linearGradient id="paint28_linear_54_6" x1="163.282" y1="36.0392" x2="165.94" y2="39.3505" gradientUnits="userSpaceOnUse">
<stop stop-color="#734301"/>
<stop offset="1" stop-color="#B97D1C"/>
</linearGradient>
<linearGradient id="paint29_linear_54_6" x1="145.289" y1="36.0505" x2="147.865" y2="39.3334" gradientUnits="userSpaceOnUse">
<stop stop-color="#734301"/>
<stop offset="1" stop-color="#B97D1C"/>
</linearGradient>
<linearGradient id="paint30_linear_54_6" x1="143.727" y1="14.1169" x2="155.824" y2="20.8445" gradientUnits="userSpaceOnUse">
<stop stop-color="#F6EC98"/>
<stop offset="0.63" stop-color="#F2D42D"/>
<stop offset="1" stop-color="#B97D1C"/>
</linearGradient>
<linearGradient id="paint31_linear_54_6" x1="126.689" y1="22.0637" x2="131.803" y2="26.0621" gradientUnits="userSpaceOnUse">
<stop stop-color="#734301"/>
<stop offset="1" stop-color="#B97D1C"/>
</linearGradient>
<linearGradient id="paint32_linear_54_6" x1="131.176" y1="18.5425" x2="135.557" y2="24.0107" gradientUnits="userSpaceOnUse">
<stop stop-color="#764602"/>
<stop offset="1" stop-color="#98660E"/>
</linearGradient>
<linearGradient id="paint33_linear_54_6" x1="133.013" y1="31.8795" x2="134.699" y2="37.6013" gradientUnits="userSpaceOnUse">
<stop stop-color="#AE7417"/>
<stop offset="1" stop-color="#764602"/>
</linearGradient>
<linearGradient id="paint34_linear_54_6" x1="129.151" y1="18.967" x2="136.644" y2="33.5848" gradientUnits="userSpaceOnUse">
<stop stop-color="#F6EC98"/>
<stop offset="0.46" stop-color="#F2D42D"/>
<stop offset="1" stop-color="#DDAE12"/>
</linearGradient>
<linearGradient id="paint35_linear_54_6" x1="134.091" y1="36.2877" x2="130.747" y2="29.6425" gradientUnits="userSpaceOnUse">
<stop stop-color="#F6EC98"/>
<stop offset="0.46" stop-color="#F2D42D"/>
<stop offset="1" stop-color="#DDAE12"/>
</linearGradient>
<linearGradient id="paint36_linear_54_6" x1="137.325" y1="17.929" x2="140.113" y2="21.258" gradientUnits="userSpaceOnUse">
<stop stop-color="#734301"/>
<stop offset="1" stop-color="#B97D1C"/>
</linearGradient>
<linearGradient id="paint37_linear_54_6" x1="145.184" y1="19.6349" x2="152.679" y2="37.2444" gradientUnits="userSpaceOnUse">
<stop stop-color="#FEF8C2"/>
<stop offset="0.59" stop-color="#F4DC50"/>
<stop offset="1" stop-color="#B97D1C"/>
</linearGradient>
<linearGradient id="paint38_linear_54_6" x1="160.201" y1="20.9882" x2="170.157" y2="34.3854" gradientUnits="userSpaceOnUse">
<stop stop-color="#FEF8C2"/>
<stop offset="0.59" stop-color="#F4DC50"/>
<stop offset="1" stop-color="#B97D1C"/>
</linearGradient>
<linearGradient id="paint39_linear_54_6" x1="109.161" y1="19.9579" x2="107.308" y2="36.3363" gradientUnits="userSpaceOnUse">
<stop stop-color="#EDD13B"/>
<stop offset="1" stop-color="#DAA70A"/>
</linearGradient>
<linearGradient id="paint40_linear_54_6" x1="102.947" y1="21.9457" x2="107.734" y2="25.3416" gradientUnits="userSpaceOnUse">
<stop stop-color="#734301"/>
<stop offset="1" stop-color="#B97D1C"/>
</linearGradient>
<linearGradient id="paint41_linear_54_6" x1="109.507" y1="20.0875" x2="106.643" y2="36.164" gradientUnits="userSpaceOnUse">
<stop stop-color="#EDD13B"/>
<stop offset="1" stop-color="#DAA70A"/>
</linearGradient>
<linearGradient id="paint42_linear_54_6" x1="110.95" y1="30.9461" x2="111.744" y2="37.3898" gradientUnits="userSpaceOnUse">
<stop stop-color="#EDD13B"/>
<stop offset="1" stop-color="#F3D634"/>
</linearGradient>
<linearGradient id="paint43_linear_54_6" x1="108.813" y1="32.1721" x2="118.086" y2="20.2176" gradientUnits="userSpaceOnUse">
<stop stop-color="#F6EC98"/>
<stop offset="1" stop-color="#F2D224"/>
</linearGradient>
<linearGradient id="paint44_linear_54_6" x1="100.932" y1="26.7235" x2="103.077" y2="27.1992" gradientUnits="userSpaceOnUse">
<stop stop-color="#734301"/>
<stop offset="1" stop-color="#B97D1C"/>
</linearGradient>
<linearGradient id="paint45_linear_54_6" x1="113.192" y1="25.4345" x2="118.37" y2="27.7421" gradientUnits="userSpaceOnUse">
<stop stop-color="#734301"/>
<stop offset="1" stop-color="#B97D1C"/>
</linearGradient>
<linearGradient id="paint46_linear_54_6" x1="116.437" y1="36.9514" x2="116.916" y2="31.6911" gradientUnits="userSpaceOnUse">
<stop stop-color="#764602"/>
<stop offset="1" stop-color="#98660E"/>
</linearGradient>
<linearGradient id="paint47_linear_54_6" x1="97.9329" y1="34.9047" x2="102.585" y2="16.6417" gradientUnits="userSpaceOnUse">
<stop stop-color="#F6EC98"/>
<stop offset="1" stop-color="#F2D224"/>
</linearGradient>
<linearGradient id="paint48_linear_54_6" x1="21.4975" y1="19.6186" x2="31.7819" y2="34.3446" gradientUnits="userSpaceOnUse">
<stop stop-color="#F7E158"/>
<stop offset="1" stop-color="#98660E"/>
</linearGradient>
<linearGradient id="paint49_linear_54_6" x1="33.401" y1="35.7081" x2="28.5061" y2="29.1951" gradientUnits="userSpaceOnUse">
<stop stop-color="#B97D1C"/>
<stop offset="0.21" stop-color="#744401"/>
<stop offset="0.41" stop-color="#764602"/>
<stop offset="1" stop-color="#98660E"/>
</linearGradient>
<linearGradient id="paint50_linear_54_6" x1="32.9104" y1="33.3403" x2="20.5655" y2="20.4817" gradientUnits="userSpaceOnUse">
<stop stop-color="#F7E158"/>
<stop offset="1" stop-color="#98660E"/>
</linearGradient>
<linearGradient id="paint51_linear_54_6" x1="21.0876" y1="20.4741" x2="24.896" y2="24.8499" gradientUnits="userSpaceOnUse">
<stop stop-color="#734301"/>
<stop offset="1" stop-color="#B97D1C"/>
</linearGradient>
<linearGradient id="paint52_linear_54_6" x1="76.1803" y1="22.6289" x2="80.9959" y2="26.1064" gradientUnits="userSpaceOnUse">
<stop stop-color="#734301"/>
<stop offset="1" stop-color="#B97D1C"/>
</linearGradient>
<linearGradient id="paint53_linear_54_6" x1="83.2034" y1="31.4001" x2="83.3453" y2="28.4814" gradientUnits="userSpaceOnUse">
<stop stop-color="#764602"/>
<stop offset="1" stop-color="#98660E"/>
</linearGradient>
<linearGradient id="paint54_linear_54_6" x1="93.5902" y1="20.1684" x2="90.2642" y2="36.0605" gradientUnits="userSpaceOnUse">
<stop stop-color="#EDD13B"/>
<stop offset="1" stop-color="#DAA70A"/>
</linearGradient>
<linearGradient id="paint55_linear_54_6" x1="86.6292" y1="23.3522" x2="91.1505" y2="26.124" gradientUnits="userSpaceOnUse">
<stop stop-color="#734301"/>
<stop offset="1" stop-color="#B97D1C"/>
</linearGradient>
<linearGradient id="paint56_linear_54_6" x1="76.1802" y1="35.9115" x2="86.1833" y2="16.3327" gradientUnits="userSpaceOnUse">
<stop stop-color="#F6EC98"/>
<stop offset="1" stop-color="#F2D224"/>
</linearGradient>
<linearGradient id="paint57_linear_54_6" x1="80.1472" y1="34.8634" x2="79.4221" y2="37.2108" gradientUnits="userSpaceOnUse">
<stop stop-color="#734301"/>
<stop offset="1" stop-color="#B97D1C"/>
</linearGradient>
<linearGradient id="paint58_linear_54_6" x1="92.7734" y1="36.4794" x2="96.6942" y2="38.6606" gradientUnits="userSpaceOnUse">
<stop stop-color="#734301"/>
<stop offset="1" stop-color="#B97D1C"/>
</linearGradient>
<linearGradient id="paint59_linear_54_6" x1="85.6382" y1="32.2055" x2="96.1171" y2="28.6228" gradientUnits="userSpaceOnUse">
<stop stop-color="#F6EC98"/>
<stop offset="1" stop-color="#F2D224"/>
</linearGradient>
<linearGradient id="paint60_linear_54_6" x1="88.408" y1="33.2928" x2="88.7298" y2="31.1135" gradientUnits="userSpaceOnUse">
<stop stop-color="#734301"/>
<stop offset="1" stop-color="#B97D1C"/>
</linearGradient>
<linearGradient id="paint61_linear_54_6" x1="94.0911" y1="33.3845" x2="94.1111" y2="32.3134" gradientUnits="userSpaceOnUse">
<stop stop-color="#764602"/>
<stop offset="1" stop-color="#98660E"/>
</linearGradient>
<linearGradient id="paint62_linear_54_6" x1="100.699" y1="36.1038" x2="103.385" y2="39.2674" gradientUnits="userSpaceOnUse">
<stop stop-color="#734301"/>
<stop offset="1" stop-color="#B97D1C"/>
</linearGradient>
<linearGradient id="paint63_linear_54_6" x1="116.437" y1="36.2192" x2="113.603" y2="39.1211" gradientUnits="userSpaceOnUse">
<stop stop-color="#734301"/>
<stop offset="1" stop-color="#B97D1C"/>
</linearGradient>
<linearGradient id="paint64_linear_54_6" x1="78.9469" y1="20.7063" x2="91.257" y2="37.0476" gradientUnits="userSpaceOnUse">
<stop stop-color="#FEF8C2"/>
<stop offset="0.59" stop-color="#F4DC50"/>
<stop offset="1" stop-color="#B97D1C"/>
</linearGradient>
<linearGradient id="paint65_linear_54_6" x1="102.86" y1="19.5142" x2="115.054" y2="36.3037" gradientUnits="userSpaceOnUse">
<stop stop-color="#FEF8C2"/>
<stop offset="0.59" stop-color="#F4DC50"/>
<stop offset="1" stop-color="#B97D1C"/>
</linearGradient>
<linearGradient id="paint66_linear_54_6" x1="45.792" y1="18.3514" x2="52.7704" y2="35.7003" gradientUnits="userSpaceOnUse">
<stop stop-color="#F6EC98"/>
<stop offset="0.46" stop-color="#F2D42D"/>
<stop offset="1" stop-color="#DDAE12"/>
</linearGradient>
<linearGradient id="paint67_linear_54_6" x1="46.3217" y1="29.2445" x2="52.4167" y2="36.2148" gradientUnits="userSpaceOnUse">
<stop stop-color="#C39E30"/>
<stop offset="1" stop-color="#92600C"/>
</linearGradient>
<linearGradient id="paint68_linear_54_6" x1="44.5851" y1="20.823" x2="48.9826" y2="25.2777" gradientUnits="userSpaceOnUse">
<stop stop-color="#734301"/>
<stop offset="1" stop-color="#B97D1C"/>
</linearGradient>
<linearGradient id="paint69_linear_54_6" x1="45.2501" y1="29.6731" x2="55.3772" y2="35.1132" gradientUnits="userSpaceOnUse">
<stop stop-color="#B97D1C"/>
<stop offset="1" stop-color="#EAD04E"/>
</linearGradient>
<linearGradient id="paint70_linear_54_6" x1="54.7422" y1="18.1526" x2="57.7537" y2="21.6135" gradientUnits="userSpaceOnUse">
<stop stop-color="#734301"/>
<stop offset="1" stop-color="#B97D1C"/>
</linearGradient>
<linearGradient id="paint71_linear_54_6" x1="54.7171" y1="34.8766" x2="56.779" y2="33.6535" gradientUnits="userSpaceOnUse">
<stop stop-color="#734301"/>
<stop offset="1" stop-color="#B97D1C"/>
</linearGradient>
<linearGradient id="paint72_linear_54_6" x1="44.4001" y1="20.8067" x2="55.7308" y2="33.8282" gradientUnits="userSpaceOnUse">
<stop stop-color="#FEF8C2"/>
<stop offset="0.59" stop-color="#F4DC50"/>
<stop offset="1" stop-color="#B97D1C"/>
</linearGradient>
<linearGradient id="paint73_linear_54_6" x1="63.077" y1="26.2895" x2="65.3965" y2="26.9508" gradientUnits="userSpaceOnUse">
<stop stop-color="#734301"/>
<stop offset="1" stop-color="#B97D1C"/>
</linearGradient>
<linearGradient id="paint74_linear_54_6" x1="69.4488" y1="17.8778" x2="70.0355" y2="19.705" gradientUnits="userSpaceOnUse">
<stop stop-color="#734301"/>
<stop offset="1" stop-color="#B97D1C"/>
</linearGradient>
<linearGradient id="paint75_linear_54_6" x1="67.2585" y1="35.6703" x2="69.4932" y2="39.5646" gradientUnits="userSpaceOnUse">
<stop stop-color="#734301"/>
<stop offset="1" stop-color="#B97D1C"/>
</linearGradient>
<linearGradient id="paint76_linear_54_6" x1="67.2682" y1="34.4096" x2="76.0141" y2="33.1809" gradientUnits="userSpaceOnUse">
<stop stop-color="#F6EC98"/>
<stop offset="1" stop-color="#F2D224"/>
</linearGradient>
<linearGradient id="paint77_linear_54_6" x1="65.0462" y1="21.4254" x2="57.925" y2="33.9685" gradientUnits="userSpaceOnUse">
<stop stop-color="#EDD13B"/>
<stop offset="1" stop-color="#DAA70A"/>
</linearGradient>
<linearGradient id="paint78_linear_54_6" x1="72.3936" y1="18.4253" x2="74.8802" y2="19.3844" gradientUnits="userSpaceOnUse">
<stop stop-color="#734301"/>
<stop offset="1" stop-color="#B97D1C"/>
</linearGradient>
<linearGradient id="paint79_linear_54_6" x1="73.1927" y1="35.2376" x2="75.2939" y2="34.1404" gradientUnits="userSpaceOnUse">
<stop stop-color="#734301"/>
<stop offset="1" stop-color="#B97D1C"/>
</linearGradient>
<linearGradient id="paint80_linear_54_6" x1="63.2252" y1="19.4866" x2="75.254" y2="32.3519" gradientUnits="userSpaceOnUse">
<stop stop-color="#FEF8C2"/>
<stop offset="0.59" stop-color="#F4DC50"/>
<stop offset="1" stop-color="#B97D1C"/>
</linearGradient>
<linearGradient id="paint81_linear_54_6" x1="64.7832" y1="27.5768" x2="65.8135" y2="23.7899" gradientUnits="userSpaceOnUse">
<stop stop-color="#F6EC98"/>
<stop offset="1" stop-color="#F2D224"/>
</linearGradient>
<linearGradient id="paint82_linear_54_6" x1="65.0812" y1="26.287" x2="64.6127" y2="30.1025" gradientUnits="userSpaceOnUse">
<stop stop-color="#734301"/>
<stop offset="1" stop-color="#B97D1C"/>
</linearGradient>
<linearGradient id="paint83_linear_54_6" x1="65.2468" y1="26.7512" x2="65.7275" y2="31.5743" gradientUnits="userSpaceOnUse">
<stop stop-color="#764602"/>
<stop offset="1" stop-color="#98660E"/>
</linearGradient>
<linearGradient id="paint84_linear_54_6" x1="119.646" y1="13.4773" x2="113.919" y2="9.69294" gradientUnits="userSpaceOnUse">
<stop stop-color="#734301"/>
<stop offset="1" stop-color="#B97D1C"/>
</linearGradient>
<linearGradient id="paint85_linear_54_6" x1="115.487" y1="12.4402" x2="116.123" y2="9.79425" gradientUnits="userSpaceOnUse">
<stop stop-color="#F6EC98"/>
<stop offset="0.46" stop-color="#F2D42D"/>
<stop offset="1" stop-color="#DDAE12"/>
</linearGradient>
<linearGradient id="paint86_linear_54_6" x1="111.989" y1="10.1392" x2="100.66" y2="6.68609" gradientUnits="userSpaceOnUse">
<stop stop-color="#734301"/>
<stop offset="1" stop-color="#B97D1C"/>
</linearGradient>
<linearGradient id="paint87_linear_54_6" x1="103.987" y1="13.02" x2="104.673" y2="6.10892" gradientUnits="userSpaceOnUse">
<stop stop-color="#F6EC98"/>
<stop offset="0.46" stop-color="#F2D42D"/>
<stop offset="1" stop-color="#DDAE12"/>
</linearGradient>
<linearGradient id="paint88_linear_54_6" x1="104.968" y1="3.41116" x2="103.963" y2="13.2169" gradientUnits="userSpaceOnUse">
<stop stop-color="#127FAA"/>
<stop offset="1" stop-color="#51E7F7"/>
</linearGradient>
<linearGradient id="paint89_linear_54_6" x1="104.258" y1="4.46435" x2="106.496" y2="4.46435" gradientUnits="userSpaceOnUse">
<stop stop-color="#3CD8EE"/>
<stop offset="1" stop-color="#28A7C1"/>
</linearGradient>
<linearGradient id="paint90_linear_54_6" x1="103.387" y1="11.892" x2="107.661" y2="7.08695" gradientUnits="userSpaceOnUse">
<stop stop-color="#0A789D"/>
<stop offset="1" stop-color="#50E7F2"/>
</linearGradient>
<linearGradient id="paint91_linear_54_6" x1="103.136" y1="7.55516" x2="101.148" y2="11.7354" gradientUnits="userSpaceOnUse">
<stop stop-color="#42CBE7"/>
<stop offset="1" stop-color="#1172A1"/>
</linearGradient>
<linearGradient id="paint92_linear_54_6" x1="99.0535" y1="10.5948" x2="104.502" y2="10.5948" gradientUnits="userSpaceOnUse">
<stop stop-color="#4FE7F7"/>
<stop offset="1" stop-color="#F1FBFD"/>
</linearGradient>
<linearGradient id="paint93_linear_54_6" x1="104.035" y1="10.6106" x2="104.982" y2="5.02467" gradientUnits="userSpaceOnUse">
<stop stop-color="#077DA1"/>
<stop offset="1" stop-color="#1FE6F6"/>
</linearGradient>
<linearGradient id="paint94_linear_54_6" x1="104.754" y1="4.79713" x2="104.271" y2="10.8478" gradientUnits="userSpaceOnUse">
<stop stop-color="#4FE7F7"/>
<stop offset="1" stop-color="#F1FBFD"/>
</linearGradient>
<linearGradient id="paint95_linear_54_6" x1="104.481" y1="13.2876" x2="104.528" y2="10.9015" gradientUnits="userSpaceOnUse">
<stop stop-color="#4FE7F7"/>
<stop offset="1" stop-color="#F1FBFD"/>
</linearGradient>
<linearGradient id="paint96_linear_54_6" x1="96.9347" y1="13.4724" x2="91.2068" y2="9.68771" gradientUnits="userSpaceOnUse">
<stop stop-color="#734301"/>
<stop offset="1" stop-color="#B97D1C"/>
</linearGradient>
<linearGradient id="paint97_linear_54_6" x1="92.7973" y1="12.4402" x2="93.4343" y2="9.79424" gradientUnits="userSpaceOnUse">
<stop stop-color="#F6EC98"/>
<stop offset="0.46" stop-color="#F2D42D"/>
<stop offset="1" stop-color="#DDAE12"/>
</linearGradient>
<linearGradient id="paint98_linear_54_6" x1="105.632" y1="15.2553" x2="104.584" y2="7.88537" gradientUnits="userSpaceOnUse">
<stop stop-color="#734301"/>
<stop offset="1" stop-color="#B97D1C"/>
</linearGradient>
<linearGradient id="paint99_linear_54_6" x1="103.907" y1="13.0604" x2="104.411" y2="8.75811" gradientUnits="userSpaceOnUse">
<stop stop-color="#F6EC98"/>
<stop offset="0.46" stop-color="#F2D42D"/>
<stop offset="1" stop-color="#DDAE12"/>
</linearGradient>
<clipPath id="clip0_54_6">
<rect width="209" height="46" fill="white"/>
</clipPath>
</defs>
</svg>
